<?xml version="1.0" encoding="UTF-8"?>
<!DOCTYPE svg PUBLIC "-//W3C//DTD SVG 1.1//EN" "http://www.w3.org/Graphics/SVG/1.1/DTD/svg11.dtd">
<!-- Creator: CorelDRAW 2017 -->
<svg xmlns="http://www.w3.org/2000/svg" xml:space="preserve" width="8.34564in" height="3.57753in" version="1.1" style="shape-rendering:geometricPrecision; text-rendering:geometricPrecision; image-rendering:optimizeQuality; fill-rule:evenodd; clip-rule:evenodd"
viewBox="0 0 8353 3581"
 xmlns:xlink="http://www.w3.org/1999/xlink">
 <defs>
  <style type="text/css">
   <![CDATA[
    .fil1 {fill:indigo}
    .fil0 {fill:indigo;fill-rule:nonzero}
   ]]>
  </style>
 </defs>
 <g id="Layer_x0020_1">
  <metadata id="CorelCorpID_0Corel-Layer"/>
  <g id="_2350123510016">
   <path class="fil0" d="M3052 1194l0 -12 -19 0c-7,0 -12,-1 -17,-3 -5,-2 -7,-10 -7,-23l0 -248 76 0c18,0 34,2 48,7 30,10 45,34 45,73l12 0 0 -171 -12 0c0,21 -4,38 -12,49 -14,20 -40,30 -78,30l-79 0 0 -287 178 0c31,1 55,11 71,30 17,19 25,41 25,66l12 0 0 -108 -396 0 0 12 16 0c9,0 16,1 20,4 4,2 7,9 7,21l0 524c0,11 -2,18 -7,21 -4,2 -11,4 -20,4l-16 0 0 12 153 0z"/>
   <path class="fil0" d="M2745 1194l0 -12 19 0c7,0 12,-1 17,-3 5,-2 7,-10 7,-23l0 -248 -76 0c-18,0 -34,2 -48,7 -30,10 -45,34 -45,73l-12 0 0 -171 12 0c0,21 4,38 12,49 14,20 40,30 78,30l79 0 0 -287 -178 0c-31,1 -55,11 -71,30 -17,19 -25,41 -25,66l-12 0 0 -108 396 0 0 12 -16 0c-9,0 -16,1 -20,4 -4,2 -7,9 -7,21l0 524c0,11 2,18 7,21 4,2 11,4 20,4l16 0 0 12 -153 0z"/>
   <path class="fil0" d="M3844 1194l0 -12 -19 0c-7,0 -12,-1 -17,-3 -5,-2 -7,-10 -7,-23l0 -248 76 0c18,0 34,2 48,7 30,10 45,34 45,73l12 0 0 -171 -12 0c0,21 -4,38 -12,49 -14,20 -40,30 -78,30l-79 0 0 -287 178 0c31,1 55,11 71,30 17,19 25,41 25,66l12 0 0 -108 -396 0 0 12 16 0c9,0 16,1 20,4 4,2 7,9 7,21l0 524c0,11 -2,18 -7,21 -4,2 -11,4 -20,4l-16 0 0 12 153 0z"/>
   <path class="fil0" d="M3538 1194l0 -12 19 0c7,0 12,-1 17,-3 5,-2 7,-10 7,-23l0 -248 -76 0c-18,0 -34,2 -48,7 -30,10 -45,34 -45,73l-12 0 0 -171 12 0c0,21 4,38 12,49 14,20 40,30 78,30l79 0 0 -287 -178 0c-31,1 -55,11 -71,30 -17,19 -25,41 -25,66l-12 0 0 -108 396 0 0 12 -16 0c-9,0 -16,1 -20,4 -4,2 -7,9 -7,21l0 524c0,11 2,18 7,21 4,2 11,4 20,4l16 0 0 12 -153 0z"/>
   <path class="fil0" d="M4637 1194l0 -12 -19 0c-7,0 -12,-1 -17,-3 -5,-2 -7,-10 -7,-23l0 -248 76 0c18,0 34,2 48,7 30,10 45,34 45,73l12 0 0 -171 -12 0c0,21 -4,38 -12,49 -14,20 -40,30 -78,30l-79 0 0 -287 178 0c31,1 55,11 71,30 17,19 25,41 25,66l12 0 0 -108 -396 0 0 12 16 0c9,0 16,1 20,4 4,2 7,9 7,21l0 524c0,11 -2,18 -7,21 -4,2 -11,4 -20,4l-16 0 0 12 153 0z"/>
   <path class="fil0" d="M4330 1194l0 -12 19 0c7,0 12,-1 17,-3 5,-2 7,-10 7,-23l0 -248 -76 0c-18,0 -34,2 -48,7 -30,10 -45,34 -45,73l-12 0 0 -171 12 0c0,21 4,38 12,49 14,20 40,30 78,30l79 0 0 -287 -178 0c-31,1 -55,11 -71,30 -17,19 -25,41 -25,66l-12 0 0 -108 396 0 0 12 -16 0c-9,0 -16,1 -20,4 -4,2 -7,9 -7,21l0 524c0,11 2,18 7,21 4,2 11,4 20,4l16 0 0 12 -153 0z"/>
   <path class="fil0" d="M5430 1194l0 -12 -19 0c-7,0 -12,-1 -17,-3 -5,-2 -7,-10 -7,-23l0 -248 76 0c18,0 34,2 48,7 30,10 45,34 45,73l12 0 0 -171 -12 0c0,21 -4,38 -12,49 -14,20 -40,30 -78,30l-79 0 0 -287 178 0c31,1 55,11 71,30 17,19 25,41 25,66l12 0 0 -108 -396 0 0 12 16 0c9,0 16,1 20,4 4,2 7,9 7,21l0 524c0,11 -2,18 -7,21 -4,2 -11,4 -20,4l-16 0 0 12 153 0z"/>
   <path class="fil0" d="M5123 1194l0 -12 19 0c7,0 12,-1 17,-3 5,-2 7,-10 7,-23l0 -248 -76 0c-18,0 -34,2 -48,7 -30,10 -45,34 -45,73l-12 0 0 -171 12 0c0,21 4,38 12,49 14,20 40,30 78,30l79 0 0 -287 -178 0c-31,1 -55,11 -71,30 -17,19 -25,41 -25,66l-12 0 0 -108 396 0 0 12 -16 0c-9,0 -16,1 -20,4 -4,2 -7,9 -7,21l0 524c0,11 2,18 7,21 4,2 11,4 20,4l16 0 0 12 -153 0z"/>
   <path class="fil0" d="M0 949c4,11 7,23 7,38l12 0 0 -171 -12 0c0,16 -2,29 -7,39l0 93zm0 -340l16 0c31,1 55,11 71,30 17,19 25,41 25,66l12 0 0 -108 -124 0 0 12z"/>
   <path class="fil0" d="M673 1194l0 -12 -19 0c-7,0 -12,-1 -17,-3 -5,-2 -7,-10 -7,-23l0 -248 76 0c18,0 34,2 48,7 30,10 45,34 45,73l12 0 0 -171 -12 0c0,21 -4,38 -12,49 -14,20 -40,30 -78,30l-79 0 0 -287 178 0c31,1 55,11 71,30 17,19 25,41 25,66l12 0 0 -108 -396 0 0 12 16 0c9,0 16,1 20,4 4,2 7,9 7,21l0 524c0,11 -2,18 -7,21 -4,2 -11,4 -20,4l-16 0 0 12 153 0z"/>
   <path class="fil0" d="M367 1194l0 -12 19 0c7,0 12,-1 17,-3 5,-2 7,-10 7,-23l0 -248 -76 0c-18,0 -34,2 -48,7 -30,10 -45,34 -45,73l-12 0 0 -171 12 0c0,21 4,38 12,49 14,20 40,30 78,30l79 0 0 -287 -178 0c-31,1 -55,11 -71,30 -17,19 -25,41 -25,66l-12 0 0 -108 396 0 0 12 -16 0c-9,0 -16,1 -20,4 -4,2 -7,9 -7,21l0 524c0,11 2,18 7,21 4,2 11,4 20,4l16 0 0 12 -153 0z"/>
   <path class="fil0" d="M1466 1194l0 -12 -19 0c-7,0 -12,-1 -17,-3 -5,-2 -7,-10 -7,-23l0 -248 76 0c18,0 34,2 48,7 30,10 45,34 45,73l12 0 0 -171 -12 0c0,21 -4,38 -12,49 -14,20 -40,30 -78,30l-79 0 0 -287 178 0c31,1 55,11 71,30 17,19 25,41 25,66l12 0 0 -108 -396 0 0 12 16 0c9,0 16,1 20,4 4,2 7,9 7,21l0 524c0,11 -2,18 -7,21 -4,2 -11,4 -20,4l-16 0 0 12 153 0z"/>
   <path class="fil0" d="M1159 1194l0 -12 19 0c7,0 12,-1 17,-3 5,-2 7,-10 7,-23l0 -248 -76 0c-18,0 -34,2 -48,7 -30,10 -45,34 -45,73l-12 0 0 -171 12 0c0,21 4,38 12,49 14,20 40,30 78,30l79 0 0 -287 -178 0c-31,1 -55,11 -71,30 -17,19 -25,41 -25,66l-12 0 0 -108 396 0 0 12 -16 0c-9,0 -16,1 -20,4 -4,2 -7,9 -7,21l0 524c0,11 2,18 7,21 4,2 11,4 20,4l16 0 0 12 -153 0z"/>
   <path class="fil0" d="M2259 1194l0 -12 -19 0c-7,0 -12,-1 -17,-3 -5,-2 -7,-10 -7,-23l0 -248 76 0c18,0 34,2 48,7 30,10 45,34 45,73l12 0 0 -171 -12 0c0,21 -4,38 -12,49 -14,20 -40,30 -78,30l-79 0 0 -287 178 0c31,1 55,11 71,30 17,19 25,41 25,66l12 0 0 -108 -396 0 0 12 16 0c9,0 16,1 20,4 4,2 7,9 7,21l0 524c0,11 -2,18 -7,21 -4,2 -11,4 -20,4l-16 0 0 12 153 0z"/>
   <path class="fil0" d="M1952 1194l0 -12 19 0c7,0 12,-1 17,-3 5,-2 7,-10 7,-23l0 -248 -76 0c-18,0 -34,2 -48,7 -30,10 -45,34 -45,73l-12 0 0 -171 12 0c0,21 4,38 12,49 14,20 40,30 78,30l79 0 0 -287 -178 0c-31,1 -55,11 -71,30 -17,19 -25,41 -25,66l-12 0 0 -108 396 0 0 12 -16 0c-9,0 -16,1 -20,4 -4,2 -7,9 -7,21l0 524c0,11 2,18 7,21 4,2 11,4 20,4l16 0 0 12 -153 0z"/>
   <path class="fil0" d="M3043 1790l0 -12 -19 0c-7,0 -12,-1 -17,-3 -5,-2 -7,-10 -7,-23l0 -248 76 0c18,0 34,2 48,7 30,10 45,34 45,73l12 0 0 -171 -12 0c0,21 -4,38 -12,49 -14,20 -40,30 -78,30l-79 0 0 -287 178 0c31,1 55,11 71,30 17,19 25,41 25,66l12 0 0 -108 -396 0 0 12 16 0c9,0 16,1 20,4 4,2 7,9 7,21l0 524c0,11 -2,18 -7,21 -4,2 -11,4 -20,4l-16 0 0 12 153 0z"/>
   <path class="fil0" d="M2737 1790l0 -12 19 0c7,0 12,-1 17,-3 5,-2 7,-10 7,-23l0 -248 -76 0c-18,0 -34,2 -48,7 -30,10 -45,34 -45,73l-12 0 0 -171 12 0c0,21 4,38 12,49 14,20 40,30 78,30l79 0 0 -287 -178 0c-31,1 -55,11 -71,30 -17,19 -25,41 -25,66l-12 0 0 -108 396 0 0 12 -16 0c-9,0 -16,1 -20,4 -4,2 -7,9 -7,21l0 524c0,11 2,18 7,21 4,2 11,4 20,4l16 0 0 12 -153 0z"/>
   <path class="fil0" d="M3836 1790l0 -12 -19 0c-7,0 -12,-1 -17,-3 -5,-2 -7,-10 -7,-23l0 -248 76 0c18,0 34,2 48,7 30,10 45,34 45,73l12 0 0 -171 -12 0c0,21 -4,38 -12,49 -14,20 -40,30 -78,30l-79 0 0 -287 178 0c31,1 55,11 71,30 17,19 25,41 25,66l12 0 0 -108 -396 0 0 12 16 0c9,0 16,1 20,4 4,2 7,9 7,21l0 524c0,11 -2,18 -7,21 -4,2 -11,4 -20,4l-16 0 0 12 153 0z"/>
   <path class="fil0" d="M3529 1790l0 -12 19 0c7,0 12,-1 17,-3 5,-2 7,-10 7,-23l0 -248 -76 0c-18,0 -34,2 -48,7 -30,10 -45,34 -45,73l-12 0 0 -171 12 0c0,21 4,38 12,49 14,20 40,30 78,30l79 0 0 -287 -178 0c-31,1 -55,11 -71,30 -17,19 -25,41 -25,66l-12 0 0 -108 396 0 0 12 -16 0c-9,0 -16,1 -20,4 -4,2 -7,9 -7,21l0 524c0,11 2,18 7,21 4,2 11,4 20,4l16 0 0 12 -153 0z"/>
   <path class="fil0" d="M4629 1790l0 -12 -19 0c-7,0 -12,-1 -17,-3 -5,-2 -7,-10 -7,-23l0 -248 76 0c18,0 34,2 48,7 30,10 45,34 45,73l12 0 0 -171 -12 0c0,21 -4,38 -12,49 -14,20 -40,30 -78,30l-79 0 0 -287 178 0c31,1 55,11 71,30 17,19 25,41 25,66l12 0 0 -108 -396 0 0 12 16 0c9,0 16,1 20,4 4,2 7,9 7,21l0 524c0,11 -2,18 -7,21 -4,2 -11,4 -20,4l-16 0 0 12 153 0z"/>
   <path class="fil0" d="M4322 1790l0 -12 19 0c7,0 12,-1 17,-3 5,-2 7,-10 7,-23l0 -248 -76 0c-18,0 -34,2 -48,7 -30,10 -45,34 -45,73l-12 0 0 -171 12 0c0,21 4,38 12,49 14,20 40,30 78,30l79 0 0 -287 -178 0c-31,1 -55,11 -71,30 -17,19 -25,41 -25,66l-12 0 0 -108 396 0 0 12 -16 0c-9,0 -16,1 -20,4 -4,2 -7,9 -7,21l0 524c0,11 2,18 7,21 4,2 11,4 20,4l16 0 0 12 -153 0z"/>
   <path class="fil0" d="M5421 1790l0 -12 -19 0c-7,0 -12,-1 -17,-3 -5,-2 -7,-10 -7,-23l0 -248 76 0c18,0 34,2 48,7 30,10 45,34 45,73l12 0 0 -171 -12 0c0,21 -4,38 -12,49 -14,20 -40,30 -78,30l-79 0 0 -287 178 0c31,1 55,11 71,30 17,19 25,41 25,66l12 0 0 -108 -396 0 0 12 16 0c9,0 16,1 20,4 4,2 7,9 7,21l0 524c0,11 -2,18 -7,21 -4,2 -11,4 -20,4l-16 0 0 12 153 0z"/>
   <path class="fil0" d="M5115 1790l0 -12 19 0c7,0 12,-1 17,-3 5,-2 7,-10 7,-23l0 -248 -76 0c-18,0 -34,2 -48,7 -30,10 -45,34 -45,73l-12 0 0 -171 12 0c0,21 4,38 12,49 14,20 40,30 78,30l79 0 0 -287 -178 0c-31,1 -55,11 -71,30 -17,19 -25,41 -25,66l-12 0 0 -108 396 0 0 12 -16 0c-9,0 -16,1 -20,4 -4,2 -7,9 -7,21l0 524c0,11 2,18 7,21 4,2 11,4 20,4l16 0 0 12 -153 0z"/>
   <path class="fil0" d="M0 1584l10 0 0 -171 -10 0 0 171zm0 -378l7 0c31,1 55,11 71,30 17,19 25,41 25,66l12 0 0 -108 -115 0 0 12z"/>
   <path class="fil0" d="M665 1790l0 -12 -19 0c-7,0 -12,-1 -17,-3 -5,-2 -7,-10 -7,-23l0 -248 76 0c18,0 34,2 48,7 30,10 45,34 45,73l12 0 0 -171 -12 0c0,21 -4,38 -12,49 -14,20 -40,30 -78,30l-79 0 0 -287 178 0c31,1 55,11 71,30 17,19 25,41 25,66l12 0 0 -108 -396 0 0 12 16 0c9,0 16,1 20,4 4,2 7,9 7,21l0 524c0,11 -2,18 -7,21 -4,2 -11,4 -20,4l-16 0 0 12 153 0z"/>
   <path class="fil0" d="M358 1790l0 -12 19 0c7,0 12,-1 17,-3 5,-2 7,-10 7,-23l0 -248 -76 0c-18,0 -34,2 -48,7 -30,10 -45,34 -45,73l-12 0 0 -171 12 0c0,21 4,38 12,49 14,20 40,30 78,30l79 0 0 -287 -178 0c-31,1 -55,11 -71,30 -17,19 -25,41 -25,66l-12 0 0 -108 396 0 0 12 -16 0c-9,0 -16,1 -20,4 -4,2 -7,9 -7,21l0 524c0,11 2,18 7,21 4,2 11,4 20,4l16 0 0 12 -153 0z"/>
   <path class="fil0" d="M1458 1790l0 -12 -19 0c-7,0 -12,-1 -17,-3 -5,-2 -7,-10 -7,-23l0 -248 76 0c18,0 34,2 48,7 30,10 45,34 45,73l12 0 0 -171 -12 0c0,21 -4,38 -12,49 -14,20 -40,30 -78,30l-79 0 0 -287 178 0c31,1 55,11 71,30 17,19 25,41 25,66l12 0 0 -108 -396 0 0 12 16 0c9,0 16,1 20,4 4,2 7,9 7,21l0 524c0,11 -2,18 -7,21 -4,2 -11,4 -20,4l-16 0 0 12 153 0z"/>
   <path class="fil0" d="M1151 1790l0 -12 19 0c7,0 12,-1 17,-3 5,-2 7,-10 7,-23l0 -248 -76 0c-18,0 -34,2 -48,7 -30,10 -45,34 -45,73l-12 0 0 -171 12 0c0,21 4,38 12,49 14,20 40,30 78,30l79 0 0 -287 -178 0c-31,1 -55,11 -71,30 -17,19 -25,41 -25,66l-12 0 0 -108 396 0 0 12 -16 0c-9,0 -16,1 -20,4 -4,2 -7,9 -7,21l0 524c0,11 2,18 7,21 4,2 11,4 20,4l16 0 0 12 -153 0z"/>
   <path class="fil0" d="M2251 1790l0 -12 -19 0c-7,0 -12,-1 -17,-3 -5,-2 -7,-10 -7,-23l0 -248 76 0c18,0 34,2 48,7 30,10 45,34 45,73l12 0 0 -171 -12 0c0,21 -4,38 -12,49 -14,20 -40,30 -78,30l-79 0 0 -287 178 0c31,1 55,11 71,30 17,19 25,41 25,66l12 0 0 -108 -396 0 0 12 16 0c9,0 16,1 20,4 4,2 7,9 7,21l0 524c0,11 -2,18 -7,21 -4,2 -11,4 -20,4l-16 0 0 12 153 0z"/>
   <path class="fil0" d="M1944 1790l0 -12 19 0c7,0 12,-1 17,-3 5,-2 7,-10 7,-23l0 -248 -76 0c-18,0 -34,2 -48,7 -30,10 -45,34 -45,73l-12 0 0 -171 12 0c0,21 4,38 12,49 14,20 40,30 78,30l79 0 0 -287 -178 0c-31,1 -55,11 -71,30 -17,19 -25,41 -25,66l-12 0 0 -108 396 0 0 12 -16 0c-9,0 -16,1 -20,4 -4,2 -7,9 -7,21l0 524c0,11 2,18 7,21 4,2 11,4 20,4l16 0 0 12 -153 0z"/>
   <path class="fil0" d="M5916 1194l0 -12 19 0c7,0 12,-1 17,-3 5,-2 7,-10 7,-23l0 -248 -76 0c-18,0 -34,2 -48,7 -30,10 -45,34 -45,73l-12 0 0 -171 12 0c0,21 4,38 12,49 14,20 40,30 78,30l79 0 0 -287 -178 0c-31,1 -55,11 -71,30 -17,19 -25,41 -25,66l-12 0 0 -108 396 0 0 12 -16 0c-9,0 -16,1 -20,4 -4,2 -7,9 -7,21l0 524c0,11 2,18 7,21 4,2 11,4 20,4l16 0 0 12 -153 0z"/>
   <path class="fil0" d="M5907 1790l0 -12 19 0c7,0 12,-1 17,-3 5,-2 7,-10 7,-23l0 -248 -76 0c-18,0 -34,2 -48,7 -30,10 -45,34 -45,73l-12 0 0 -171 12 0c0,21 4,38 12,49 14,20 40,30 78,30l79 0 0 -287 -178 0c-31,1 -55,11 -71,30 -17,19 -25,41 -25,66l-12 0 0 -108 396 0 0 12 -16 0c-9,0 -16,1 -20,4 -4,2 -7,9 -7,21l0 524c0,11 2,18 7,21 4,2 11,4 20,4l16 0 0 12 -153 0z"/>
   <path class="fil1" d="M916 960c12,0 23,-3 33,-9 10,-6 18,-14 23,-23 6,-10 9,-21 9,-33 0,-12 -3,-23 -9,-33 -6,-10 -14,-18 -23,-23 -10,-6 -21,-9 -33,-9 -12,0 -23,3 -33,9 -10,6 -18,14 -24,23 -6,10 -9,21 -9,33 0,12 3,23 9,33 6,10 14,18 24,23 10,6 21,9 33,9zm0 -4c-8,0 -16,-3 -23,-8 -7,-6 -12,-13 -16,-22 -4,-9 -6,-20 -6,-31 0,-11 2,-22 6,-31 4,-9 9,-17 16,-22 7,-6 14,-8 23,-8 8,0 16,3 23,8 7,6 12,13 16,22 4,9 6,20 6,31 0,11 -2,22 -6,31 -4,9 -9,17 -16,22 -7,6 -14,8 -23,8z"/>
   <path class="fil1" d="M124 960c12,0 23,-3 33,-9 10,-6 18,-14 23,-23 6,-10 9,-21 9,-33 0,-12 -3,-23 -9,-33 -6,-10 -14,-18 -23,-23 -10,-6 -21,-9 -33,-9 -12,0 -23,3 -33,9 -10,6 -18,14 -24,23 -6,10 -9,21 -9,33 0,12 3,23 9,33 6,10 14,18 24,23 10,6 21,9 33,9zm0 -4c-8,0 -16,-3 -23,-8 -7,-6 -12,-13 -16,-22 -4,-9 -6,-20 -6,-31 0,-11 2,-22 6,-31 4,-9 9,-17 16,-22 7,-6 14,-8 23,-8 8,0 16,3 23,8 7,6 12,13 16,22 4,9 6,20 6,31 0,11 -2,22 -6,31 -4,9 -9,17 -16,22 -7,6 -14,8 -23,8z"/>
   <path class="fil1" d="M1709 961c12,0 23,-3 33,-9 10,-6 18,-14 23,-23 6,-10 9,-21 9,-33 0,-12 -3,-23 -9,-33 -6,-10 -14,-18 -23,-23 -10,-6 -21,-9 -33,-9 -12,0 -23,3 -33,9 -10,6 -18,14 -24,23 -6,10 -9,21 -9,33 0,12 3,23 9,33 6,10 14,18 24,23 10,6 21,9 33,9zm0 -4c-8,0 -16,-3 -23,-8 -7,-6 -12,-13 -16,-22 -4,-9 -6,-20 -6,-31 0,-11 2,-22 6,-31 4,-9 9,-17 16,-22 7,-6 14,-8 23,-8 8,0 16,3 23,8 7,6 12,13 16,22 4,9 6,20 6,31 0,11 -2,22 -6,31 -4,9 -9,17 -16,22 -7,6 -14,8 -23,8z"/>
   <path class="fil1" d="M2502 960c12,0 23,-3 33,-9 10,-6 18,-14 23,-23 6,-10 9,-21 9,-33 0,-12 -3,-23 -9,-33 -6,-10 -14,-18 -23,-23 -10,-6 -21,-9 -33,-9 -12,0 -23,3 -33,9 -10,6 -18,14 -24,23 -6,10 -9,21 -9,33 0,12 3,23 9,33 6,10 14,18 24,23 10,6 21,9 33,9zm0 -4c-8,0 -16,-3 -23,-8 -7,-6 -12,-13 -16,-22 -4,-9 -6,-20 -6,-31 0,-11 2,-22 6,-31 4,-9 9,-17 16,-22 7,-6 14,-8 23,-8 8,0 16,3 23,8 7,6 12,13 16,22 4,9 6,20 6,31 0,11 -2,22 -6,31 -4,9 -9,17 -16,22 -7,6 -14,8 -23,8z"/>
   <path class="fil1" d="M3295 960c12,0 23,-3 33,-9 10,-6 18,-14 23,-23 6,-10 9,-21 9,-33 0,-12 -3,-23 -9,-33 -6,-10 -14,-18 -23,-23 -10,-6 -21,-9 -33,-9 -12,0 -23,3 -33,9 -10,6 -18,14 -24,23 -6,10 -9,21 -9,33 0,12 3,23 9,33 6,10 14,18 24,23 10,6 21,9 33,9zm0 -4c-8,0 -16,-3 -23,-8 -7,-6 -12,-13 -16,-22 -4,-9 -6,-20 -6,-31 0,-11 2,-22 6,-31 4,-9 9,-17 16,-22 7,-6 14,-8 23,-8 8,0 16,3 23,8 7,6 12,13 16,22 4,9 6,20 6,31 0,11 -2,22 -6,31 -4,9 -9,17 -16,22 -7,6 -14,8 -23,8z"/>
   <path class="fil1" d="M4087 960c12,0 23,-3 33,-9 10,-6 18,-14 23,-23 6,-10 9,-21 9,-33 0,-12 -3,-23 -9,-33 -6,-10 -14,-18 -23,-23 -10,-6 -21,-9 -33,-9 -12,0 -23,3 -33,9 -10,6 -18,14 -24,23 -6,10 -9,21 -9,33 0,12 3,23 9,33 6,10 14,18 24,23 10,6 21,9 33,9zm0 -4c-8,0 -16,-3 -23,-8 -7,-6 -12,-13 -16,-22 -4,-9 -6,-20 -6,-31 0,-11 2,-22 6,-31 4,-9 9,-17 16,-22 7,-6 14,-8 23,-8 8,0 16,3 23,8 7,6 12,13 16,22 4,9 6,20 6,31 0,11 -2,22 -6,31 -4,9 -9,17 -16,22 -7,6 -14,8 -23,8z"/>
   <path class="fil1" d="M4880 960c12,0 23,-3 33,-9 10,-6 18,-14 23,-23 6,-10 9,-21 9,-33 0,-12 -3,-23 -9,-33 -6,-10 -14,-18 -23,-23 -10,-6 -21,-9 -33,-9 -12,0 -23,3 -33,9 -10,6 -18,14 -24,23 -6,10 -9,21 -9,33 0,12 3,23 9,33 6,10 14,18 24,23 10,6 21,9 33,9zm0 -4c-8,0 -16,-3 -23,-8 -7,-6 -12,-13 -16,-22 -4,-9 -6,-20 -6,-31 0,-11 2,-22 6,-31 4,-9 9,-17 16,-22 7,-6 14,-8 23,-8 8,0 16,3 23,8 7,6 12,13 16,22 4,9 6,20 6,31 0,11 -2,22 -6,31 -4,9 -9,17 -16,22 -7,6 -14,8 -23,8z"/>
   <path class="fil1" d="M5673 960c12,0 23,-3 33,-9 10,-6 18,-14 23,-23 6,-10 9,-21 9,-33 0,-12 -3,-23 -9,-33 -6,-10 -14,-18 -23,-23 -10,-6 -21,-9 -33,-9 -12,0 -23,3 -33,9 -10,6 -18,14 -24,23 -6,10 -9,21 -9,33 0,12 3,23 9,33 6,10 14,18 24,23 10,6 21,9 33,9zm0 -4c-8,0 -16,-3 -23,-8 -7,-6 -12,-13 -16,-22 -4,-9 -6,-20 -6,-31 0,-11 2,-22 6,-31 4,-9 9,-17 16,-22 7,-6 14,-8 23,-8 8,0 16,3 23,8 7,6 12,13 16,22 4,9 6,20 6,31 0,11 -2,22 -6,31 -4,9 -9,17 -16,22 -7,6 -14,8 -23,8z"/>
   <path class="fil1" d="M916 1573c12,0 23,-3 33,-9 10,-6 18,-14 23,-23 6,-10 9,-21 9,-33 0,-12 -3,-23 -9,-33 -6,-10 -14,-18 -23,-23 -10,-6 -21,-9 -33,-9 -12,0 -23,3 -33,9 -10,6 -18,14 -24,23 -6,10 -9,21 -9,33 0,12 3,23 9,33 6,10 14,18 24,23 10,6 21,9 33,9zm0 -4c-8,0 -16,-3 -23,-8 -7,-6 -12,-13 -16,-22 -4,-9 -6,-20 -6,-31 0,-11 2,-22 6,-31 4,-9 9,-17 16,-22 7,-6 14,-8 23,-8 8,0 16,3 23,8 7,6 12,13 16,22 4,9 6,20 6,31 0,11 -2,22 -6,31 -4,9 -9,17 -16,22 -7,6 -14,8 -23,8z"/>
   <path class="fil1" d="M124 1573c12,0 23,-3 33,-9 10,-6 18,-14 23,-23 6,-10 9,-21 9,-33 0,-12 -3,-23 -9,-33 -6,-10 -14,-18 -23,-23 -10,-6 -21,-9 -33,-9 -12,0 -23,3 -33,9 -10,6 -18,14 -24,23 -6,10 -9,21 -9,33 0,12 3,23 9,33 6,10 14,18 24,23 10,6 21,9 33,9zm0 -4c-8,0 -16,-3 -23,-8 -7,-6 -12,-13 -16,-22 -4,-9 -6,-20 -6,-31 0,-11 2,-22 6,-31 4,-9 9,-17 16,-22 7,-6 14,-8 23,-8 8,0 16,3 23,8 7,6 12,13 16,22 4,9 6,20 6,31 0,11 -2,22 -6,31 -4,9 -9,17 -16,22 -7,6 -14,8 -23,8z"/>
   <path class="fil1" d="M1709 1574c12,0 23,-3 33,-9 10,-6 18,-14 23,-23 6,-10 9,-21 9,-33 0,-12 -3,-23 -9,-33 -6,-10 -14,-18 -23,-23 -10,-6 -21,-9 -33,-9 -12,0 -23,3 -33,9 -10,6 -18,14 -24,23 -6,10 -9,21 -9,33 0,12 3,23 9,33 6,10 14,18 24,23 10,6 21,9 33,9zm0 -4c-8,0 -16,-3 -23,-8 -7,-6 -12,-13 -16,-22 -4,-9 -6,-20 -6,-31 0,-11 2,-22 6,-31 4,-9 9,-17 16,-22 7,-6 14,-8 23,-8 8,0 16,3 23,8 7,6 12,13 16,22 4,9 6,20 6,31 0,11 -2,22 -6,31 -4,9 -9,17 -16,22 -7,6 -14,8 -23,8z"/>
   <path class="fil1" d="M2502 1573c12,0 23,-3 33,-9 10,-6 18,-14 23,-23 6,-10 9,-21 9,-33 0,-12 -3,-23 -9,-33 -6,-10 -14,-18 -23,-23 -10,-6 -21,-9 -33,-9 -12,0 -23,3 -33,9 -10,6 -18,14 -24,23 -6,10 -9,21 -9,33 0,12 3,23 9,33 6,10 14,18 24,23 10,6 21,9 33,9zm0 -4c-8,0 -16,-3 -23,-8 -7,-6 -12,-13 -16,-22 -4,-9 -6,-20 -6,-31 0,-11 2,-22 6,-31 4,-9 9,-17 16,-22 7,-6 14,-8 23,-8 8,0 16,3 23,8 7,6 12,13 16,22 4,9 6,20 6,31 0,11 -2,22 -6,31 -4,9 -9,17 -16,22 -7,6 -14,8 -23,8z"/>
   <path class="fil1" d="M3295 1573c12,0 23,-3 33,-9 10,-6 18,-14 23,-23 6,-10 9,-21 9,-33 0,-12 -3,-23 -9,-33 -6,-10 -14,-18 -23,-23 -10,-6 -21,-9 -33,-9 -12,0 -23,3 -33,9 -10,6 -18,14 -24,23 -6,10 -9,21 -9,33 0,12 3,23 9,33 6,10 14,18 24,23 10,6 21,9 33,9zm0 -4c-8,0 -16,-3 -23,-8 -7,-6 -12,-13 -16,-22 -4,-9 -6,-20 -6,-31 0,-11 2,-22 6,-31 4,-9 9,-17 16,-22 7,-6 14,-8 23,-8 8,0 16,3 23,8 7,6 12,13 16,22 4,9 6,20 6,31 0,11 -2,22 -6,31 -4,9 -9,17 -16,22 -7,6 -14,8 -23,8z"/>
   <path class="fil1" d="M4087 1573c12,0 23,-3 33,-9 10,-6 18,-14 23,-23 6,-10 9,-21 9,-33 0,-12 -3,-23 -9,-33 -6,-10 -14,-18 -23,-23 -10,-6 -21,-9 -33,-9 -12,0 -23,3 -33,9 -10,6 -18,14 -24,23 -6,10 -9,21 -9,33 0,12 3,23 9,33 6,10 14,18 24,23 10,6 21,9 33,9zm0 -4c-8,0 -16,-3 -23,-8 -7,-6 -12,-13 -16,-22 -4,-9 -6,-20 -6,-31 0,-11 2,-22 6,-31 4,-9 9,-17 16,-22 7,-6 14,-8 23,-8 8,0 16,3 23,8 7,6 12,13 16,22 4,9 6,20 6,31 0,11 -2,22 -6,31 -4,9 -9,17 -16,22 -7,6 -14,8 -23,8z"/>
   <path class="fil1" d="M4880 1573c12,0 23,-3 33,-9 10,-6 18,-14 23,-23 6,-10 9,-21 9,-33 0,-12 -3,-23 -9,-33 -6,-10 -14,-18 -23,-23 -10,-6 -21,-9 -33,-9 -12,0 -23,3 -33,9 -10,6 -18,14 -24,23 -6,10 -9,21 -9,33 0,12 3,23 9,33 6,10 14,18 24,23 10,6 21,9 33,9zm0 -4c-8,0 -16,-3 -23,-8 -7,-6 -12,-13 -16,-22 -4,-9 -6,-20 -6,-31 0,-11 2,-22 6,-31 4,-9 9,-17 16,-22 7,-6 14,-8 23,-8 8,0 16,3 23,8 7,6 12,13 16,22 4,9 6,20 6,31 0,11 -2,22 -6,31 -4,9 -9,17 -16,22 -7,6 -14,8 -23,8z"/>
   <path class="fil1" d="M5673 1573c12,0 23,-3 33,-9 10,-6 18,-14 23,-23 6,-10 9,-21 9,-33 0,-12 -3,-23 -9,-33 -6,-10 -14,-18 -23,-23 -10,-6 -21,-9 -33,-9 -12,0 -23,3 -33,9 -10,6 -18,14 -24,23 -6,10 -9,21 -9,33 0,12 3,23 9,33 6,10 14,18 24,23 10,6 21,9 33,9zm0 -4c-8,0 -16,-3 -23,-8 -7,-6 -12,-13 -16,-22 -4,-9 -6,-20 -6,-31 0,-11 2,-22 6,-31 4,-9 9,-17 16,-22 7,-6 14,-8 23,-8 8,0 16,3 23,8 7,6 12,13 16,22 4,9 6,20 6,31 0,11 -2,22 -6,31 -4,9 -9,17 -16,22 -7,6 -14,8 -23,8z"/>
   <g>
    <path class="fil0" d="M3447 597l0 -12 -19 0c-7,0 -12,-1 -17,-3 -5,-2 -7,-10 -7,-23l0 -248 76 0c18,0 34,2 48,7 30,10 45,34 45,73l12 0 0 -171 -12 0c0,21 -4,38 -12,49 -14,20 -40,30 -78,30l-79 0 0 -287 178 0c31,1 55,11 71,30 17,19 25,41 25,66l12 0 0 -108 -396 0 0 12 16 0c9,0 16,1 20,4 4,2 7,9 7,21l0 524c0,11 -2,18 -7,21 -4,2 -11,4 -20,4l-16 0 0 12 153 0z"/>
    <path class="fil0" d="M3140 597l0 -12 19 0c7,0 12,-1 17,-3 5,-2 7,-10 7,-23l0 -248 -76 0c-18,0 -34,2 -48,7 -30,10 -45,34 -45,73l-12 0 0 -171 12 0c0,21 4,38 12,49 14,20 40,30 78,30l79 0 0 -287 -178 0c-31,1 -55,11 -71,30 -17,19 -25,41 -25,66l-12 0 0 -108 396 0 0 12 -16 0c-9,0 -16,1 -20,4 -4,2 -7,9 -7,21l0 524c0,11 2,18 7,21 4,2 11,4 20,4l16 0 0 12 -153 0z"/>
    <path class="fil0" d="M4240 597l0 -12 -19 0c-7,0 -12,-1 -17,-3 -5,-2 -7,-10 -7,-23l0 -248 76 0c18,0 34,2 48,7 30,10 45,34 45,73l12 0 0 -171 -12 0c0,21 -4,38 -12,49 -14,20 -40,30 -78,30l-79 0 0 -287 178 0c31,1 55,11 71,30 17,19 25,41 25,66l12 0 0 -108 -396 0 0 12 16 0c9,0 16,1 20,4 4,2 7,9 7,21l0 524c0,11 -2,18 -7,21 -4,2 -11,4 -20,4l-16 0 0 12 153 0z"/>
    <path class="fil0" d="M3933 597l0 -12 19 0c7,0 12,-1 17,-3 5,-2 7,-10 7,-23l0 -248 -76 0c-18,0 -34,2 -48,7 -30,10 -45,34 -45,73l-12 0 0 -171 12 0c0,21 4,38 12,49 14,20 40,30 78,30l79 0 0 -287 -178 0c-31,1 -55,11 -71,30 -17,19 -25,41 -25,66l-12 0 0 -108 396 0 0 12 -16 0c-9,0 -16,1 -20,4 -4,2 -7,9 -7,21l0 524c0,11 2,18 7,21 4,2 11,4 20,4l16 0 0 12 -153 0z"/>
    <path class="fil0" d="M5033 597l0 -12 -19 0c-7,0 -12,-1 -17,-3 -5,-2 -7,-10 -7,-23l0 -248 76 0c18,0 34,2 48,7 30,10 45,34 45,73l12 0 0 -171 -12 0c0,21 -4,38 -12,49 -14,20 -40,30 -78,30l-79 0 0 -287 178 0c31,1 55,11 71,30 17,19 25,41 25,66l12 0 0 -108 -396 0 0 12 16 0c9,0 16,1 20,4 4,2 7,9 7,21l0 524c0,11 -2,18 -7,21 -4,2 -11,4 -20,4l-16 0 0 12 153 0z"/>
    <path class="fil0" d="M4726 597l0 -12 19 0c7,0 12,-1 17,-3 5,-2 7,-10 7,-23l0 -248 -76 0c-18,0 -34,2 -48,7 -30,10 -45,34 -45,73l-12 0 0 -171 12 0c0,21 4,38 12,49 14,20 40,30 78,30l79 0 0 -287 -178 0c-31,1 -55,11 -71,30 -17,19 -25,41 -25,66l-12 0 0 -108 396 0 0 12 -16 0c-9,0 -16,1 -20,4 -4,2 -7,9 -7,21l0 524c0,11 2,18 7,21 4,2 11,4 20,4l16 0 0 12 -153 0z"/>
    <path class="fil0" d="M5825 597l0 -12 -19 0c-7,0 -12,-1 -17,-3 -5,-2 -7,-10 -7,-23l0 -248 76 0c18,0 34,2 48,7 30,10 45,34 45,73l12 0 0 -171 -12 0c0,21 -4,38 -12,49 -14,20 -40,30 -78,30l-79 0 0 -287 178 0c31,1 55,11 71,30 17,19 25,41 25,66l12 0 0 -108 -396 0 0 12 16 0c9,0 16,1 20,4 4,2 7,9 7,21l0 524c0,11 -2,18 -7,21 -4,2 -11,4 -20,4l-16 0 0 12 153 0z"/>
    <path class="fil0" d="M5519 597l0 -12 19 0c7,0 12,-1 17,-3 5,-2 7,-10 7,-23l0 -248 -76 0c-18,0 -34,2 -48,7 -30,10 -45,34 -45,73l-12 0 0 -171 12 0c0,21 4,38 12,49 14,20 40,30 78,30l79 0 0 -287 -178 0c-31,1 -55,11 -71,30 -17,19 -25,41 -25,66l-12 0 0 -108 396 0 0 12 -16 0c-9,0 -16,1 -20,4 -4,2 -7,9 -7,21l0 524c0,11 2,18 7,21 4,2 11,4 20,4l16 0 0 12 -153 0z"/>
    <path class="fil0" d="M276 597l0 -12 -19 0c-7,0 -12,-1 -17,-3 -5,-2 -7,-10 -7,-23l0 -248 76 0c18,0 34,2 48,7 30,10 45,34 45,73l12 0 0 -171 -12 0c0,21 -4,38 -12,49 -14,20 -40,30 -78,30l-79 0 0 -287 178 0c31,1 55,11 71,30 17,19 25,41 25,66l12 0 0 -108 -396 0 0 12 16 0c9,0 16,1 20,4 4,2 7,9 7,21l0 524c0,11 -2,18 -7,21 -4,2 -11,4 -20,4l-16 0 0 12 153 0z"/>
    <path class="fil0" d="M0 584c2,0 4,-1 5,-2 5,-2 7,-10 7,-23l0 -248 -12 0 0 -12 12 0 0 -287 -12 0 0 -12 123 0 0 12 -16 0c-9,0 -16,1 -20,4 -4,2 -7,9 -7,21l0 524c0,11 2,18 7,21 4,2 11,4 20,4l16 0 0 12 -123 0 0 -13z"/>
    <path class="fil0" d="M1069 597l0 -12 -19 0c-7,0 -12,-1 -17,-3 -5,-2 -7,-10 -7,-23l0 -248 76 0c18,0 34,2 48,7 30,10 45,34 45,73l12 0 0 -171 -12 0c0,21 -4,38 -12,49 -14,20 -40,30 -78,30l-79 0 0 -287 178 0c31,1 55,11 71,30 17,19 25,41 25,66l12 0 0 -108 -396 0 0 12 16 0c9,0 16,1 20,4 4,2 7,9 7,21l0 524c0,11 -2,18 -7,21 -4,2 -11,4 -20,4l-16 0 0 12 153 0z"/>
    <path class="fil0" d="M762 597l0 -12 19 0c7,0 12,-1 17,-3 5,-2 7,-10 7,-23l0 -248 -76 0c-18,0 -34,2 -48,7 -30,10 -45,34 -45,73l-12 0 0 -171 12 0c0,21 4,38 12,49 14,20 40,30 78,30l79 0 0 -287 -178 0c-31,1 -55,11 -71,30 -17,19 -25,41 -25,66l-12 0 0 -108 396 0 0 12 -16 0c-9,0 -16,1 -20,4 -4,2 -7,9 -7,21l0 524c0,11 2,18 7,21 4,2 11,4 20,4l16 0 0 12 -153 0z"/>
    <path class="fil0" d="M1862 597l0 -12 -19 0c-7,0 -12,-1 -17,-3 -5,-2 -7,-10 -7,-23l0 -248 76 0c18,0 34,2 48,7 30,10 45,34 45,73l12 0 0 -171 -12 0c0,21 -4,38 -12,49 -14,20 -40,30 -78,30l-79 0 0 -287 178 0c31,1 55,11 71,30 17,19 25,41 25,66l12 0 0 -108 -396 0 0 12 16 0c9,0 16,1 20,4 4,2 7,9 7,21l0 524c0,11 -2,18 -7,21 -4,2 -11,4 -20,4l-16 0 0 12 153 0z"/>
    <path class="fil0" d="M1555 597l0 -12 19 0c7,0 12,-1 17,-3 5,-2 7,-10 7,-23l0 -248 -76 0c-18,0 -34,2 -48,7 -30,10 -45,34 -45,73l-12 0 0 -171 12 0c0,21 4,38 12,49 14,20 40,30 78,30l79 0 0 -287 -178 0c-31,1 -55,11 -71,30 -17,19 -25,41 -25,66l-12 0 0 -108 396 0 0 12 -16 0c-9,0 -16,1 -20,4 -4,2 -7,9 -7,21l0 524c0,11 2,18 7,21 4,2 11,4 20,4l16 0 0 12 -153 0z"/>
    <path class="fil0" d="M2654 597l0 -12 -19 0c-7,0 -12,-1 -17,-3 -5,-2 -7,-10 -7,-23l0 -248 76 0c18,0 34,2 48,7 30,10 45,34 45,73l12 0 0 -171 -12 0c0,21 -4,38 -12,49 -14,20 -40,30 -78,30l-79 0 0 -287 178 0c31,1 55,11 71,30 17,19 25,41 25,66l12 0 0 -108 -396 0 0 12 16 0c9,0 16,1 20,4 4,2 7,9 7,21l0 524c0,11 -2,18 -7,21 -4,2 -11,4 -20,4l-16 0 0 12 153 0z"/>
    <path class="fil0" d="M2348 597l0 -12 19 0c7,0 12,-1 17,-3 5,-2 7,-10 7,-23l0 -248 -76 0c-18,0 -34,2 -48,7 -30,10 -45,34 -45,73l-12 0 0 -171 12 0c0,21 4,38 12,49 14,20 40,30 78,30l79 0 0 -287 -178 0c-31,1 -55,11 -71,30 -17,19 -25,41 -25,66l-12 0 0 -108 396 0 0 12 -16 0c-9,0 -16,1 -20,4 -4,2 -7,9 -7,21l0 524c0,11 2,18 7,21 4,2 11,4 20,4l16 0 0 12 -153 0z"/>
    <path class="fil1" d="M1304 363c12,0 23,-3 33,-9 10,-6 18,-14 23,-23 6,-10 9,-21 9,-33 0,-12 -3,-23 -9,-33 -6,-10 -14,-18 -23,-23 -10,-6 -21,-9 -33,-9 -12,0 -23,3 -33,9 -10,6 -18,14 -24,23 -6,10 -9,21 -9,33 0,12 3,23 9,33 6,10 14,18 24,23 10,6 21,9 33,9zm0 -4c-8,0 -16,-3 -23,-8 -7,-6 -12,-13 -16,-22 -4,-9 -6,-20 -6,-31 0,-11 2,-22 6,-31 4,-9 9,-17 16,-22 7,-6 14,-8 23,-8 8,0 16,3 23,8 7,6 12,13 16,22 4,9 6,20 6,31 0,11 -2,22 -6,31 -4,9 -9,17 -16,22 -7,6 -14,8 -23,8z"/>
    <path class="fil1" d="M519 363c12,0 23,-3 33,-9 10,-6 18,-14 23,-23 6,-10 9,-21 9,-33 0,-12 -3,-23 -9,-33 -6,-10 -14,-18 -23,-23 -10,-6 -21,-9 -33,-9 -12,0 -23,3 -33,9 -10,6 -18,14 -24,23 -6,10 -9,21 -9,33 0,12 3,23 9,33 6,10 14,18 24,23 10,6 21,9 33,9zm0 -4c-8,0 -16,-3 -23,-8 -7,-6 -12,-13 -16,-22 -4,-9 -6,-20 -6,-31 0,-11 2,-22 6,-31 4,-9 9,-17 16,-22 7,-6 14,-8 23,-8 8,0 16,3 23,8 7,6 12,13 16,22 4,9 6,20 6,31 0,11 -2,22 -6,31 -4,9 -9,17 -16,22 -7,6 -14,8 -23,8z"/>
    <path class="fil1" d="M2105 363c12,0 23,-3 33,-9 10,-6 18,-14 23,-23 6,-10 9,-21 9,-33 0,-12 -3,-23 -9,-33 -6,-10 -14,-18 -23,-23 -10,-6 -21,-9 -33,-9 -12,0 -23,3 -33,9 -10,6 -18,14 -24,23 -6,10 -9,21 -9,33 0,12 3,23 9,33 6,10 14,18 24,23 10,6 21,9 33,9zm0 -4c-8,0 -16,-3 -23,-8 -7,-6 -12,-13 -16,-22 -4,-9 -6,-20 -6,-31 0,-11 2,-22 6,-31 4,-9 9,-17 16,-22 7,-6 14,-8 23,-8 8,0 16,3 23,8 7,6 12,13 16,22 4,9 6,20 6,31 0,11 -2,22 -6,31 -4,9 -9,17 -16,22 -7,6 -14,8 -23,8z"/>
    <path class="fil1" d="M2897 363c12,0 23,-3 33,-9 10,-6 18,-14 23,-23 6,-10 9,-21 9,-33 0,-12 -3,-23 -9,-33 -6,-10 -14,-18 -23,-23 -10,-6 -21,-9 -33,-9 -12,0 -23,3 -33,9 -10,6 -18,14 -24,23 -6,10 -9,21 -9,33 0,12 3,23 9,33 6,10 14,18 24,23 10,6 21,9 33,9zm0 -4c-8,0 -16,-3 -23,-8 -7,-6 -12,-13 -16,-22 -4,-9 -6,-20 -6,-31 0,-11 2,-22 6,-31 4,-9 9,-17 16,-22 7,-6 14,-8 23,-8 8,0 16,3 23,8 7,6 12,13 16,22 4,9 6,20 6,31 0,11 -2,22 -6,31 -4,9 -9,17 -16,22 -7,6 -14,8 -23,8z"/>
    <path class="fil1" d="M3690 364c12,0 23,-3 33,-9 10,-6 18,-14 23,-23 6,-10 9,-21 9,-33 0,-12 -3,-23 -9,-33 -6,-10 -14,-18 -23,-23 -10,-6 -21,-9 -33,-9 -12,0 -23,3 -33,9 -10,6 -18,14 -24,23 -6,10 -9,21 -9,33 0,12 3,23 9,33 6,10 14,18 24,23 10,6 21,9 33,9zm0 -4c-8,0 -16,-3 -23,-8 -7,-6 -12,-13 -16,-22 -4,-9 -6,-20 -6,-31 0,-11 2,-22 6,-31 4,-9 9,-17 16,-22 7,-6 14,-8 23,-8 8,0 16,3 23,8 7,6 12,13 16,22 4,9 6,20 6,31 0,11 -2,22 -6,31 -4,9 -9,17 -16,22 -7,6 -14,8 -23,8z"/>
    <path class="fil1" d="M4483 363c12,0 23,-3 33,-9 10,-6 18,-14 23,-23 6,-10 9,-21 9,-33 0,-12 -3,-23 -9,-33 -6,-10 -14,-18 -23,-23 -10,-6 -21,-9 -33,-9 -12,0 -23,3 -33,9 -10,6 -18,14 -24,23 -6,10 -9,21 -9,33 0,12 3,23 9,33 6,10 14,18 24,23 10,6 21,9 33,9zm0 -4c-8,0 -16,-3 -23,-8 -7,-6 -12,-13 -16,-22 -4,-9 -6,-20 -6,-31 0,-11 2,-22 6,-31 4,-9 9,-17 16,-22 7,-6 14,-8 23,-8 8,0 16,3 23,8 7,6 12,13 16,22 4,9 6,20 6,31 0,11 -2,22 -6,31 -4,9 -9,17 -16,22 -7,6 -14,8 -23,8z"/>
    <path class="fil1" d="M5276 363c12,0 23,-3 33,-9 10,-6 18,-14 23,-23 6,-10 9,-21 9,-33 0,-12 -3,-23 -9,-33 -6,-10 -14,-18 -23,-23 -10,-6 -21,-9 -33,-9 -12,0 -23,3 -33,9 -10,6 -18,14 -24,23 -6,10 -9,21 -9,33 0,12 3,23 9,33 6,10 14,18 24,23 10,6 21,9 33,9zm0 -4c-8,0 -16,-3 -23,-8 -7,-6 -12,-13 -16,-22 -4,-9 -6,-20 -6,-31 0,-11 2,-22 6,-31 4,-9 9,-17 16,-22 7,-6 14,-8 23,-8 8,0 16,3 23,8 7,6 12,13 16,22 4,9 6,20 6,31 0,11 -2,22 -6,31 -4,9 -9,17 -16,22 -7,6 -14,8 -23,8z"/>
   </g>
   <g>
    <path class="fil0" d="M3043 2984l0 -12 -19 0c-7,0 -12,-1 -17,-3 -5,-2 -7,-10 -7,-23l0 -248 76 0c18,0 34,2 48,7 30,10 45,34 45,73l12 0 0 -171 -12 0c0,21 -4,38 -12,49 -14,20 -40,30 -78,30l-79 0 0 -287 178 0c31,1 55,11 71,30 17,19 25,41 25,66l12 0 0 -108 -396 0 0 12 16 0c9,0 16,1 20,4 4,2 7,9 7,21l0 524c0,11 -2,18 -7,21 -4,2 -11,4 -20,4l-16 0 0 12 153 0z"/>
    <path class="fil0" d="M2737 2984l0 -12 19 0c7,0 12,-1 17,-3 5,-2 7,-10 7,-23l0 -248 -76 0c-18,0 -34,2 -48,7 -30,10 -45,34 -45,73l-12 0 0 -171 12 0c0,21 4,38 12,49 14,20 40,30 78,30l79 0 0 -287 -178 0c-31,1 -55,11 -71,30 -17,19 -25,41 -25,66l-12 0 0 -108 396 0 0 12 -16 0c-9,0 -16,1 -20,4 -4,2 -7,9 -7,21l0 524c0,11 2,18 7,21 4,2 11,4 20,4l16 0 0 12 -153 0z"/>
    <path class="fil0" d="M3836 2984l0 -12 -19 0c-7,0 -12,-1 -17,-3 -5,-2 -7,-10 -7,-23l0 -248 76 0c18,0 34,2 48,7 30,10 45,34 45,73l12 0 0 -171 -12 0c0,21 -4,38 -12,49 -14,20 -40,30 -78,30l-79 0 0 -287 178 0c31,1 55,11 71,30 17,19 25,41 25,66l12 0 0 -108 -396 0 0 12 16 0c9,0 16,1 20,4 4,2 7,9 7,21l0 524c0,11 -2,18 -7,21 -4,2 -11,4 -20,4l-16 0 0 12 153 0z"/>
    <path class="fil0" d="M3529 2984l0 -12 19 0c7,0 12,-1 17,-3 5,-2 7,-10 7,-23l0 -248 -76 0c-18,0 -34,2 -48,7 -30,10 -45,34 -45,73l-12 0 0 -171 12 0c0,21 4,38 12,49 14,20 40,30 78,30l79 0 0 -287 -178 0c-31,1 -55,11 -71,30 -17,19 -25,41 -25,66l-12 0 0 -108 396 0 0 12 -16 0c-9,0 -16,1 -20,4 -4,2 -7,9 -7,21l0 524c0,11 2,18 7,21 4,2 11,4 20,4l16 0 0 12 -153 0z"/>
    <path class="fil0" d="M4629 2984l0 -12 -19 0c-7,0 -12,-1 -17,-3 -5,-2 -7,-10 -7,-23l0 -248 76 0c18,0 34,2 48,7 30,10 45,34 45,73l12 0 0 -171 -12 0c0,21 -4,38 -12,49 -14,20 -40,30 -78,30l-79 0 0 -287 178 0c31,1 55,11 71,30 17,19 25,41 25,66l12 0 0 -108 -396 0 0 12 16 0c9,0 16,1 20,4 4,2 7,9 7,21l0 524c0,11 -2,18 -7,21 -4,2 -11,4 -20,4l-16 0 0 12 153 0z"/>
    <path class="fil0" d="M4322 2984l0 -12 19 0c7,0 12,-1 17,-3 5,-2 7,-10 7,-23l0 -248 -76 0c-18,0 -34,2 -48,7 -30,10 -45,34 -45,73l-12 0 0 -171 12 0c0,21 4,38 12,49 14,20 40,30 78,30l79 0 0 -287 -178 0c-31,1 -55,11 -71,30 -17,19 -25,41 -25,66l-12 0 0 -108 396 0 0 12 -16 0c-9,0 -16,1 -20,4 -4,2 -7,9 -7,21l0 524c0,11 2,18 7,21 4,2 11,4 20,4l16 0 0 12 -153 0z"/>
    <path class="fil0" d="M5421 2984l0 -12 -19 0c-7,0 -12,-1 -17,-3 -5,-2 -7,-10 -7,-23l0 -248 76 0c18,0 34,2 48,7 30,10 45,34 45,73l12 0 0 -171 -12 0c0,21 -4,38 -12,49 -14,20 -40,30 -78,30l-79 0 0 -287 178 0c31,1 55,11 71,30 17,19 25,41 25,66l12 0 0 -108 -396 0 0 12 16 0c9,0 16,1 20,4 4,2 7,9 7,21l0 524c0,11 -2,18 -7,21 -4,2 -11,4 -20,4l-16 0 0 12 153 0z"/>
    <path class="fil0" d="M5115 2984l0 -12 19 0c7,0 12,-1 17,-3 5,-2 7,-10 7,-23l0 -248 -76 0c-18,0 -34,2 -48,7 -30,10 -45,34 -45,73l-12 0 0 -171 12 0c0,21 4,38 12,49 14,20 40,30 78,30l79 0 0 -287 -178 0c-31,1 -55,11 -71,30 -17,19 -25,41 -25,66l-12 0 0 -108 396 0 0 12 -16 0c-9,0 -16,1 -20,4 -4,2 -7,9 -7,21l0 524c0,11 2,18 7,21 4,2 11,4 20,4l16 0 0 12 -153 0z"/>
    <path class="fil0" d="M0 2778l10 0 0 -171 -10 0 0 171zm0 -378l7 0c31,1 55,11 71,30 17,19 25,41 25,66l12 0 0 -108 -115 0 0 12z"/>
    <path class="fil0" d="M665 2984l0 -12 -19 0c-7,0 -12,-1 -17,-3 -5,-2 -7,-10 -7,-23l0 -248 76 0c18,0 34,2 48,7 30,10 45,34 45,73l12 0 0 -171 -12 0c0,21 -4,38 -12,49 -14,20 -40,30 -78,30l-79 0 0 -287 178 0c31,1 55,11 71,30 17,19 25,41 25,66l12 0 0 -108 -396 0 0 12 16 0c9,0 16,1 20,4 4,2 7,9 7,21l0 524c0,11 -2,18 -7,21 -4,2 -11,4 -20,4l-16 0 0 12 153 0z"/>
    <path class="fil0" d="M358 2984l0 -12 19 0c7,0 12,-1 17,-3 5,-2 7,-10 7,-23l0 -248 -76 0c-18,0 -34,2 -48,7 -30,10 -45,34 -45,73l-12 0 0 -171 12 0c0,21 4,38 12,49 14,20 40,30 78,30l79 0 0 -287 -178 0c-31,1 -55,11 -71,30 -17,19 -25,41 -25,66l-12 0 0 -108 396 0 0 12 -16 0c-9,0 -16,1 -20,4 -4,2 -7,9 -7,21l0 524c0,11 2,18 7,21 4,2 11,4 20,4l16 0 0 12 -153 0z"/>
    <path class="fil0" d="M1458 2984l0 -12 -19 0c-7,0 -12,-1 -17,-3 -5,-2 -7,-10 -7,-23l0 -248 76 0c18,0 34,2 48,7 30,10 45,34 45,73l12 0 0 -171 -12 0c0,21 -4,38 -12,49 -14,20 -40,30 -78,30l-79 0 0 -287 178 0c31,1 55,11 71,30 17,19 25,41 25,66l12 0 0 -108 -396 0 0 12 16 0c9,0 16,1 20,4 4,2 7,9 7,21l0 524c0,11 -2,18 -7,21 -4,2 -11,4 -20,4l-16 0 0 12 153 0z"/>
    <path class="fil0" d="M1151 2984l0 -12 19 0c7,0 12,-1 17,-3 5,-2 7,-10 7,-23l0 -248 -76 0c-18,0 -34,2 -48,7 -30,10 -45,34 -45,73l-12 0 0 -171 12 0c0,21 4,38 12,49 14,20 40,30 78,30l79 0 0 -287 -178 0c-31,1 -55,11 -71,30 -17,19 -25,41 -25,66l-12 0 0 -108 396 0 0 12 -16 0c-9,0 -16,1 -20,4 -4,2 -7,9 -7,21l0 524c0,11 2,18 7,21 4,2 11,4 20,4l16 0 0 12 -153 0z"/>
    <path class="fil0" d="M2251 2984l0 -12 -19 0c-7,0 -12,-1 -17,-3 -5,-2 -7,-10 -7,-23l0 -248 76 0c18,0 34,2 48,7 30,10 45,34 45,73l12 0 0 -171 -12 0c0,21 -4,38 -12,49 -14,20 -40,30 -78,30l-79 0 0 -287 178 0c31,1 55,11 71,30 17,19 25,41 25,66l12 0 0 -108 -396 0 0 12 16 0c9,0 16,1 20,4 4,2 7,9 7,21l0 524c0,11 -2,18 -7,21 -4,2 -11,4 -20,4l-16 0 0 12 153 0z"/>
    <path class="fil0" d="M1944 2984l0 -12 19 0c7,0 12,-1 17,-3 5,-2 7,-10 7,-23l0 -248 -76 0c-18,0 -34,2 -48,7 -30,10 -45,34 -45,73l-12 0 0 -171 12 0c0,21 4,38 12,49 14,20 40,30 78,30l79 0 0 -287 -178 0c-31,1 -55,11 -71,30 -17,19 -25,41 -25,66l-12 0 0 -108 396 0 0 12 -16 0c-9,0 -16,1 -20,4 -4,2 -7,9 -7,21l0 524c0,11 2,18 7,21 4,2 11,4 20,4l16 0 0 12 -153 0z"/>
    <path class="fil0" d="M3035 3581l0 -12 -19 0c-7,0 -12,-1 -17,-3 -5,-2 -7,-10 -7,-23l0 -248 76 0c18,0 34,2 48,7 30,10 45,34 45,73l12 0 0 -171 -12 0c0,21 -4,38 -12,49 -14,20 -40,30 -78,30l-79 0 0 -287 178 0c31,1 55,11 71,30 17,19 25,41 25,66l12 0 0 -108 -396 0 0 12 16 0c9,0 16,1 20,4 4,2 7,9 7,21l0 524c0,11 -2,18 -7,21 -4,2 -11,4 -20,4l-16 0 0 12 153 0z"/>
    <path class="fil0" d="M2728 3581l0 -12 19 0c7,0 12,-1 17,-3 5,-2 7,-10 7,-23l0 -248 -76 0c-18,0 -34,2 -48,7 -30,10 -45,34 -45,73l-12 0 0 -171 12 0c0,21 4,38 12,49 14,20 40,30 78,30l79 0 0 -287 -178 0c-31,1 -55,11 -71,30 -17,19 -25,41 -25,66l-12 0 0 -108 396 0 0 12 -16 0c-9,0 -16,1 -20,4 -4,2 -7,9 -7,21l0 524c0,11 2,18 7,21 4,2 11,4 20,4l16 0 0 12 -153 0z"/>
    <path class="fil0" d="M3828 3581l0 -12 -19 0c-7,0 -12,-1 -17,-3 -5,-2 -7,-10 -7,-23l0 -248 76 0c18,0 34,2 48,7 30,10 45,34 45,73l12 0 0 -171 -12 0c0,21 -4,38 -12,49 -14,20 -40,30 -78,30l-79 0 0 -287 178 0c31,1 55,11 71,30 17,19 25,41 25,66l12 0 0 -108 -396 0 0 12 16 0c9,0 16,1 20,4 4,2 7,9 7,21l0 524c0,11 -2,18 -7,21 -4,2 -11,4 -20,4l-16 0 0 12 153 0z"/>
    <path class="fil0" d="M3521 3581l0 -12 19 0c7,0 12,-1 17,-3 5,-2 7,-10 7,-23l0 -248 -76 0c-18,0 -34,2 -48,7 -30,10 -45,34 -45,73l-12 0 0 -171 12 0c0,21 4,38 12,49 14,20 40,30 78,30l79 0 0 -287 -178 0c-31,1 -55,11 -71,30 -17,19 -25,41 -25,66l-12 0 0 -108 396 0 0 12 -16 0c-9,0 -16,1 -20,4 -4,2 -7,9 -7,21l0 524c0,11 2,18 7,21 4,2 11,4 20,4l16 0 0 12 -153 0z"/>
    <path class="fil0" d="M4620 3581l0 -12 -19 0c-7,0 -12,-1 -17,-3 -5,-2 -7,-10 -7,-23l0 -248 76 0c18,0 34,2 48,7 30,10 45,34 45,73l12 0 0 -171 -12 0c0,21 -4,38 -12,49 -14,20 -40,30 -78,30l-79 0 0 -287 178 0c31,1 55,11 71,30 17,19 25,41 25,66l12 0 0 -108 -396 0 0 12 16 0c9,0 16,1 20,4 4,2 7,9 7,21l0 524c0,11 -2,18 -7,21 -4,2 -11,4 -20,4l-16 0 0 12 153 0z"/>
    <path class="fil0" d="M4314 3581l0 -12 19 0c7,0 12,-1 17,-3 5,-2 7,-10 7,-23l0 -248 -76 0c-18,0 -34,2 -48,7 -30,10 -45,34 -45,73l-12 0 0 -171 12 0c0,21 4,38 12,49 14,20 40,30 78,30l79 0 0 -287 -178 0c-31,1 -55,11 -71,30 -17,19 -25,41 -25,66l-12 0 0 -108 396 0 0 12 -16 0c-9,0 -16,1 -20,4 -4,2 -7,9 -7,21l0 524c0,11 2,18 7,21 4,2 11,4 20,4l16 0 0 12 -153 0z"/>
    <path class="fil0" d="M5413 3581l0 -12 -19 0c-7,0 -12,-1 -17,-3 -5,-2 -7,-10 -7,-23l0 -248 76 0c18,0 34,2 48,7 30,10 45,34 45,73l12 0 0 -171 -12 0c0,21 -4,38 -12,49 -14,20 -40,30 -78,30l-79 0 0 -287 178 0c31,1 55,11 71,30 17,19 25,41 25,66l12 0 0 -108 -396 0 0 12 16 0c9,0 16,1 20,4 4,2 7,9 7,21l0 524c0,11 -2,18 -7,21 -4,2 -11,4 -20,4l-16 0 0 12 153 0z"/>
    <path class="fil0" d="M5106 3581l0 -12 19 0c7,0 12,-1 17,-3 5,-2 7,-10 7,-23l0 -248 -76 0c-18,0 -34,2 -48,7 -30,10 -45,34 -45,73l-12 0 0 -171 12 0c0,21 4,38 12,49 14,20 40,30 78,30l79 0 0 -287 -178 0c-31,1 -55,11 -71,30 -17,19 -25,41 -25,66l-12 0 0 -108 396 0 0 12 -16 0c-9,0 -16,1 -20,4 -4,2 -7,9 -7,21l0 524c0,11 2,18 7,21 4,2 11,4 20,4l16 0 0 12 -153 0z"/>
    <path class="fil0" d="M0 3375l2 0 0 -171 -2 0 0 171zm0 -378c31,1 54,11 70,30 17,19 25,41 25,66l12 0 0 -108 -107 0 0 12z"/>
    <path class="fil0" d="M657 3581l0 -12 -19 0c-7,0 -12,-1 -17,-3 -5,-2 -7,-10 -7,-23l0 -248 76 0c18,0 34,2 48,7 30,10 45,34 45,73l12 0 0 -171 -12 0c0,21 -4,38 -12,49 -14,20 -40,30 -78,30l-79 0 0 -287 178 0c31,1 55,11 71,30 17,19 25,41 25,66l12 0 0 -108 -396 0 0 12 16 0c9,0 16,1 20,4 4,2 7,9 7,21l0 524c0,11 -2,18 -7,21 -4,2 -11,4 -20,4l-16 0 0 12 153 0z"/>
    <path class="fil0" d="M350 3581l0 -12 19 0c7,0 12,-1 17,-3 5,-2 7,-10 7,-23l0 -248 -76 0c-18,0 -34,2 -48,7 -30,10 -45,34 -45,73l-12 0 0 -171 12 0c0,21 4,38 12,49 14,20 40,30 78,30l79 0 0 -287 -178 0c-31,1 -55,11 -71,30 -17,19 -25,41 -25,66l-12 0 0 -108 396 0 0 12 -16 0c-9,0 -16,1 -20,4 -4,2 -7,9 -7,21l0 524c0,11 2,18 7,21 4,2 11,4 20,4l16 0 0 12 -153 0z"/>
    <path class="fil0" d="M1449 3581l0 -12 -19 0c-7,0 -12,-1 -17,-3 -5,-2 -7,-10 -7,-23l0 -248 76 0c18,0 34,2 48,7 30,10 45,34 45,73l12 0 0 -171 -12 0c0,21 -4,38 -12,49 -14,20 -40,30 -78,30l-79 0 0 -287 178 0c31,1 55,11 71,30 17,19 25,41 25,66l12 0 0 -108 -396 0 0 12 16 0c9,0 16,1 20,4 4,2 7,9 7,21l0 524c0,11 -2,18 -7,21 -4,2 -11,4 -20,4l-16 0 0 12 153 0z"/>
    <path class="fil0" d="M1143 3581l0 -12 19 0c7,0 12,-1 17,-3 5,-2 7,-10 7,-23l0 -248 -76 0c-18,0 -34,2 -48,7 -30,10 -45,34 -45,73l-12 0 0 -171 12 0c0,21 4,38 12,49 14,20 40,30 78,30l79 0 0 -287 -178 0c-31,1 -55,11 -71,30 -17,19 -25,41 -25,66l-12 0 0 -108 396 0 0 12 -16 0c-9,0 -16,1 -20,4 -4,2 -7,9 -7,21l0 524c0,11 2,18 7,21 4,2 11,4 20,4l16 0 0 12 -153 0z"/>
    <path class="fil0" d="M2242 3581l0 -12 -19 0c-7,0 -12,-1 -17,-3 -5,-2 -7,-10 -7,-23l0 -248 76 0c18,0 34,2 48,7 30,10 45,34 45,73l12 0 0 -171 -12 0c0,21 -4,38 -12,49 -14,20 -40,30 -78,30l-79 0 0 -287 178 0c31,1 55,11 71,30 17,19 25,41 25,66l12 0 0 -108 -396 0 0 12 16 0c9,0 16,1 20,4 4,2 7,9 7,21l0 524c0,11 -2,18 -7,21 -4,2 -11,4 -20,4l-16 0 0 12 153 0z"/>
    <path class="fil0" d="M1935 3581l0 -12 19 0c7,0 12,-1 17,-3 5,-2 7,-10 7,-23l0 -248 -76 0c-18,0 -34,2 -48,7 -30,10 -45,34 -45,73l-12 0 0 -171 12 0c0,21 4,38 12,49 14,20 40,30 78,30l79 0 0 -287 -178 0c-31,1 -55,11 -71,30 -17,19 -25,41 -25,66l-12 0 0 -108 396 0 0 12 -16 0c-9,0 -16,1 -20,4 -4,2 -7,9 -7,21l0 524c0,11 2,18 7,21 4,2 11,4 20,4l16 0 0 12 -153 0z"/>
    <path class="fil0" d="M5907 2984l0 -12 19 0c7,0 12,-1 17,-3 5,-2 7,-10 7,-23l0 -248 -76 0c-18,0 -34,2 -48,7 -30,10 -45,34 -45,73l-12 0 0 -171 12 0c0,21 4,38 12,49 14,20 40,30 78,30l79 0 0 -287 -178 0c-31,1 -55,11 -71,30 -17,19 -25,41 -25,66l-12 0 0 -108 396 0 0 12 -16 0c-9,0 -16,1 -20,4 -4,2 -7,9 -7,21l0 524c0,11 2,18 7,21 4,2 11,4 20,4l16 0 0 12 -153 0z"/>
    <path class="fil0" d="M5899 3581l0 -12 19 0c7,0 12,-1 17,-3 5,-2 7,-10 7,-23l0 -248 -76 0c-18,0 -34,2 -48,7 -30,10 -45,34 -45,73l-12 0 0 -171 12 0c0,21 4,38 12,49 14,20 40,30 78,30l79 0 0 -287 -178 0c-31,1 -55,11 -71,30 -17,19 -25,41 -25,66l-12 0 0 -108 396 0 0 12 -16 0c-9,0 -16,1 -20,4 -4,2 -7,9 -7,21l0 524c0,11 2,18 7,21 4,2 11,4 20,4l16 0 0 12 -153 0z"/>
    <path class="fil1" d="M908 2751c12,0 23,-3 33,-9 10,-6 18,-14 23,-23 6,-10 9,-21 9,-33 0,-12 -3,-23 -9,-33 -6,-10 -14,-18 -23,-23 -10,-6 -21,-9 -33,-9 -12,0 -23,3 -33,9 -10,6 -18,14 -24,23 -6,10 -9,21 -9,33 0,12 3,23 9,33 6,10 14,18 24,23 10,6 21,9 33,9zm0 -4c-8,0 -16,-3 -23,-8 -7,-6 -12,-13 -16,-22 -4,-9 -6,-20 -6,-31 0,-11 2,-22 6,-31 4,-9 9,-17 16,-22 7,-6 14,-8 23,-8 8,0 16,3 23,8 7,6 12,13 16,22 4,9 6,20 6,31 0,11 -2,22 -6,31 -4,9 -9,17 -16,22 -7,6 -14,8 -23,8z"/>
    <path class="fil1" d="M115 2751c12,0 23,-3 33,-9 10,-6 18,-14 23,-23 6,-10 9,-21 9,-33 0,-12 -3,-23 -9,-33 -6,-10 -14,-18 -23,-23 -10,-6 -21,-9 -33,-9 -12,0 -23,3 -33,9 -10,6 -18,14 -24,23 -6,10 -9,21 -9,33 0,12 3,23 9,33 6,10 14,18 24,23 10,6 21,9 33,9zm0 -4c-8,0 -16,-3 -23,-8 -7,-6 -12,-13 -16,-22 -4,-9 -6,-20 -6,-31 0,-11 2,-22 6,-31 4,-9 9,-17 16,-22 7,-6 14,-8 23,-8 8,0 16,3 23,8 7,6 12,13 16,22 4,9 6,20 6,31 0,11 -2,22 -6,31 -4,9 -9,17 -16,22 -7,6 -14,8 -23,8z"/>
    <path class="fil1" d="M1701 2751c12,0 23,-3 33,-9 10,-6 18,-14 23,-23 6,-10 9,-21 9,-33 0,-12 -3,-23 -9,-33 -6,-10 -14,-18 -23,-23 -10,-6 -21,-9 -33,-9 -12,0 -23,3 -33,9 -10,6 -18,14 -24,23 -6,10 -9,21 -9,33 0,12 3,23 9,33 6,10 14,18 24,23 10,6 21,9 33,9zm0 -4c-8,0 -16,-3 -23,-8 -7,-6 -12,-13 -16,-22 -4,-9 -6,-20 -6,-31 0,-11 2,-22 6,-31 4,-9 9,-17 16,-22 7,-6 14,-8 23,-8 8,0 16,3 23,8 7,6 12,13 16,22 4,9 6,20 6,31 0,11 -2,22 -6,31 -4,9 -9,17 -16,22 -7,6 -14,8 -23,8z"/>
    <path class="fil1" d="M2494 2751c12,0 23,-3 33,-9 10,-6 18,-14 23,-23 6,-10 9,-21 9,-33 0,-12 -3,-23 -9,-33 -6,-10 -14,-18 -23,-23 -10,-6 -21,-9 -33,-9 -12,0 -23,3 -33,9 -10,6 -18,14 -24,23 -6,10 -9,21 -9,33 0,12 3,23 9,33 6,10 14,18 24,23 10,6 21,9 33,9zm0 -4c-8,0 -16,-3 -23,-8 -7,-6 -12,-13 -16,-22 -4,-9 -6,-20 -6,-31 0,-11 2,-22 6,-31 4,-9 9,-17 16,-22 7,-6 14,-8 23,-8 8,0 16,3 23,8 7,6 12,13 16,22 4,9 6,20 6,31 0,11 -2,22 -6,31 -4,9 -9,17 -16,22 -7,6 -14,8 -23,8z"/>
    <path class="fil1" d="M3286 2751c12,0 23,-3 33,-9 10,-6 18,-14 23,-23 6,-10 9,-21 9,-33 0,-12 -3,-23 -9,-33 -6,-10 -14,-18 -23,-23 -10,-6 -21,-9 -33,-9 -12,0 -23,3 -33,9 -10,6 -18,14 -24,23 -6,10 -9,21 -9,33 0,12 3,23 9,33 6,10 14,18 24,23 10,6 21,9 33,9zm0 -4c-8,0 -16,-3 -23,-8 -7,-6 -12,-13 -16,-22 -4,-9 -6,-20 -6,-31 0,-11 2,-22 6,-31 4,-9 9,-17 16,-22 7,-6 14,-8 23,-8 8,0 16,3 23,8 7,6 12,13 16,22 4,9 6,20 6,31 0,11 -2,22 -6,31 -4,9 -9,17 -16,22 -7,6 -14,8 -23,8z"/>
    <path class="fil1" d="M4079 2751c12,0 23,-3 33,-9 10,-6 18,-14 23,-23 6,-10 9,-21 9,-33 0,-12 -3,-23 -9,-33 -6,-10 -14,-18 -23,-23 -10,-6 -21,-9 -33,-9 -12,0 -23,3 -33,9 -10,6 -18,14 -24,23 -6,10 -9,21 -9,33 0,12 3,23 9,33 6,10 14,18 24,23 10,6 21,9 33,9zm0 -4c-8,0 -16,-3 -23,-8 -7,-6 -12,-13 -16,-22 -4,-9 -6,-20 -6,-31 0,-11 2,-22 6,-31 4,-9 9,-17 16,-22 7,-6 14,-8 23,-8 8,0 16,3 23,8 7,6 12,13 16,22 4,9 6,20 6,31 0,11 -2,22 -6,31 -4,9 -9,17 -16,22 -7,6 -14,8 -23,8z"/>
    <path class="fil1" d="M4872 2751c12,0 23,-3 33,-9 10,-6 18,-14 23,-23 6,-10 9,-21 9,-33 0,-12 -3,-23 -9,-33 -6,-10 -14,-18 -23,-23 -10,-6 -21,-9 -33,-9 -12,0 -23,3 -33,9 -10,6 -18,14 -24,23 -6,10 -9,21 -9,33 0,12 3,23 9,33 6,10 14,18 24,23 10,6 21,9 33,9zm0 -4c-8,0 -16,-3 -23,-8 -7,-6 -12,-13 -16,-22 -4,-9 -6,-20 -6,-31 0,-11 2,-22 6,-31 4,-9 9,-17 16,-22 7,-6 14,-8 23,-8 8,0 16,3 23,8 7,6 12,13 16,22 4,9 6,20 6,31 0,11 -2,22 -6,31 -4,9 -9,17 -16,22 -7,6 -14,8 -23,8z"/>
    <path class="fil1" d="M5664 2751c12,0 23,-3 33,-9 10,-6 18,-14 23,-23 6,-10 9,-21 9,-33 0,-12 -3,-23 -9,-33 -6,-10 -14,-18 -23,-23 -10,-6 -21,-9 -33,-9 -12,0 -23,3 -33,9 -10,6 -18,14 -24,23 -6,10 -9,21 -9,33 0,12 3,23 9,33 6,10 14,18 24,23 10,6 21,9 33,9zm0 -4c-8,0 -16,-3 -23,-8 -7,-6 -12,-13 -16,-22 -4,-9 -6,-20 -6,-31 0,-11 2,-22 6,-31 4,-9 9,-17 16,-22 7,-6 14,-8 23,-8 8,0 16,3 23,8 7,6 12,13 16,22 4,9 6,20 6,31 0,11 -2,22 -6,31 -4,9 -9,17 -16,22 -7,6 -14,8 -23,8z"/>
    <path class="fil1" d="M908 3363c12,0 23,-3 33,-9 10,-6 18,-14 23,-23 6,-10 9,-21 9,-33 0,-12 -3,-23 -9,-33 -6,-10 -14,-18 -23,-23 -10,-6 -21,-9 -33,-9 -12,0 -23,3 -33,9 -10,6 -18,14 -24,23 -6,10 -9,21 -9,33 0,12 3,23 9,33 6,10 14,18 24,23 10,6 21,9 33,9zm0 -4c-8,0 -16,-3 -23,-8 -7,-6 -12,-13 -16,-22 -4,-9 -6,-20 -6,-31 0,-11 2,-22 6,-31 4,-9 9,-17 16,-22 7,-6 14,-8 23,-8 8,0 16,3 23,8 7,6 12,13 16,22 4,9 6,20 6,31 0,11 -2,22 -6,31 -4,9 -9,17 -16,22 -7,6 -14,8 -23,8z"/>
    <path class="fil1" d="M115 3363c12,0 23,-3 33,-9 10,-6 18,-14 23,-23 6,-10 9,-21 9,-33 0,-12 -3,-23 -9,-33 -6,-10 -14,-18 -23,-23 -10,-6 -21,-9 -33,-9 -12,0 -23,3 -33,9 -10,6 -18,14 -24,23 -6,10 -9,21 -9,33 0,12 3,23 9,33 6,10 14,18 24,23 10,6 21,9 33,9zm0 -4c-8,0 -16,-3 -23,-8 -7,-6 -12,-13 -16,-22 -4,-9 -6,-20 -6,-31 0,-11 2,-22 6,-31 4,-9 9,-17 16,-22 7,-6 14,-8 23,-8 8,0 16,3 23,8 7,6 12,13 16,22 4,9 6,20 6,31 0,11 -2,22 -6,31 -4,9 -9,17 -16,22 -7,6 -14,8 -23,8z"/>
    <path class="fil1" d="M1701 3364c12,0 23,-3 33,-9 10,-6 18,-14 23,-23 6,-10 9,-21 9,-33 0,-12 -3,-23 -9,-33 -6,-10 -14,-18 -23,-23 -10,-6 -21,-9 -33,-9 -12,0 -23,3 -33,9 -10,6 -18,14 -24,23 -6,10 -9,21 -9,33 0,12 3,23 9,33 6,10 14,18 24,23 10,6 21,9 33,9zm0 -4c-8,0 -16,-3 -23,-8 -7,-6 -12,-13 -16,-22 -4,-9 -6,-20 -6,-31 0,-11 2,-22 6,-31 4,-9 9,-17 16,-22 7,-6 14,-8 23,-8 8,0 16,3 23,8 7,6 12,13 16,22 4,9 6,20 6,31 0,11 -2,22 -6,31 -4,9 -9,17 -16,22 -7,6 -14,8 -23,8z"/>
    <path class="fil1" d="M2494 3363c12,0 23,-3 33,-9 10,-6 18,-14 23,-23 6,-10 9,-21 9,-33 0,-12 -3,-23 -9,-33 -6,-10 -14,-18 -23,-23 -10,-6 -21,-9 -33,-9 -12,0 -23,3 -33,9 -10,6 -18,14 -24,23 -6,10 -9,21 -9,33 0,12 3,23 9,33 6,10 14,18 24,23 10,6 21,9 33,9zm0 -4c-8,0 -16,-3 -23,-8 -7,-6 -12,-13 -16,-22 -4,-9 -6,-20 -6,-31 0,-11 2,-22 6,-31 4,-9 9,-17 16,-22 7,-6 14,-8 23,-8 8,0 16,3 23,8 7,6 12,13 16,22 4,9 6,20 6,31 0,11 -2,22 -6,31 -4,9 -9,17 -16,22 -7,6 -14,8 -23,8z"/>
    <path class="fil1" d="M3286 3363c12,0 23,-3 33,-9 10,-6 18,-14 23,-23 6,-10 9,-21 9,-33 0,-12 -3,-23 -9,-33 -6,-10 -14,-18 -23,-23 -10,-6 -21,-9 -33,-9 -12,0 -23,3 -33,9 -10,6 -18,14 -24,23 -6,10 -9,21 -9,33 0,12 3,23 9,33 6,10 14,18 24,23 10,6 21,9 33,9zm0 -4c-8,0 -16,-3 -23,-8 -7,-6 -12,-13 -16,-22 -4,-9 -6,-20 -6,-31 0,-11 2,-22 6,-31 4,-9 9,-17 16,-22 7,-6 14,-8 23,-8 8,0 16,3 23,8 7,6 12,13 16,22 4,9 6,20 6,31 0,11 -2,22 -6,31 -4,9 -9,17 -16,22 -7,6 -14,8 -23,8z"/>
    <path class="fil1" d="M4079 3363c12,0 23,-3 33,-9 10,-6 18,-14 23,-23 6,-10 9,-21 9,-33 0,-12 -3,-23 -9,-33 -6,-10 -14,-18 -23,-23 -10,-6 -21,-9 -33,-9 -12,0 -23,3 -33,9 -10,6 -18,14 -24,23 -6,10 -9,21 -9,33 0,12 3,23 9,33 6,10 14,18 24,23 10,6 21,9 33,9zm0 -4c-8,0 -16,-3 -23,-8 -7,-6 -12,-13 -16,-22 -4,-9 -6,-20 -6,-31 0,-11 2,-22 6,-31 4,-9 9,-17 16,-22 7,-6 14,-8 23,-8 8,0 16,3 23,8 7,6 12,13 16,22 4,9 6,20 6,31 0,11 -2,22 -6,31 -4,9 -9,17 -16,22 -7,6 -14,8 -23,8z"/>
    <path class="fil1" d="M4872 3363c12,0 23,-3 33,-9 10,-6 18,-14 23,-23 6,-10 9,-21 9,-33 0,-12 -3,-23 -9,-33 -6,-10 -14,-18 -23,-23 -10,-6 -21,-9 -33,-9 -12,0 -23,3 -33,9 -10,6 -18,14 -24,23 -6,10 -9,21 -9,33 0,12 3,23 9,33 6,10 14,18 24,23 10,6 21,9 33,9zm0 -4c-8,0 -16,-3 -23,-8 -7,-6 -12,-13 -16,-22 -4,-9 -6,-20 -6,-31 0,-11 2,-22 6,-31 4,-9 9,-17 16,-22 7,-6 14,-8 23,-8 8,0 16,3 23,8 7,6 12,13 16,22 4,9 6,20 6,31 0,11 -2,22 -6,31 -4,9 -9,17 -16,22 -7,6 -14,8 -23,8z"/>
    <path class="fil1" d="M5664 3363c12,0 23,-3 33,-9 10,-6 18,-14 23,-23 6,-10 9,-21 9,-33 0,-12 -3,-23 -9,-33 -6,-10 -14,-18 -23,-23 -10,-6 -21,-9 -33,-9 -12,0 -23,3 -33,9 -10,6 -18,14 -24,23 -6,10 -9,21 -9,33 0,12 3,23 9,33 6,10 14,18 24,23 10,6 21,9 33,9zm0 -4c-8,0 -16,-3 -23,-8 -7,-6 -12,-13 -16,-22 -4,-9 -6,-20 -6,-31 0,-11 2,-22 6,-31 4,-9 9,-17 16,-22 7,-6 14,-8 23,-8 8,0 16,3 23,8 7,6 12,13 16,22 4,9 6,20 6,31 0,11 -2,22 -6,31 -4,9 -9,17 -16,22 -7,6 -14,8 -23,8z"/>
    <g>
     <path class="fil0" d="M3439 2387l0 -12 -19 0c-7,0 -12,-1 -17,-3 -5,-2 -7,-10 -7,-23l0 -248 76 0c18,0 34,2 48,7 30,10 45,34 45,73l12 0 0 -171 -12 0c0,21 -4,38 -12,49 -14,20 -40,30 -78,30l-79 0 0 -287 178 0c31,1 55,11 71,30 17,19 25,41 25,66l12 0 0 -108 -396 0 0 12 16 0c9,0 16,1 20,4 4,2 7,9 7,21l0 524c0,11 -2,18 -7,21 -4,2 -11,4 -20,4l-16 0 0 12 153 0z"/>
     <path class="fil0" d="M3132 2387l0 -12 19 0c7,0 12,-1 17,-3 5,-2 7,-10 7,-23l0 -248 -76 0c-18,0 -34,2 -48,7 -30,10 -45,34 -45,73l-12 0 0 -171 12 0c0,21 4,38 12,49 14,20 40,30 78,30l79 0 0 -287 -178 0c-31,1 -55,11 -71,30 -17,19 -25,41 -25,66l-12 0 0 -108 396 0 0 12 -16 0c-9,0 -16,1 -20,4 -4,2 -7,9 -7,21l0 524c0,11 2,18 7,21 4,2 11,4 20,4l16 0 0 12 -153 0z"/>
     <path class="fil0" d="M4231 2387l0 -12 -19 0c-7,0 -12,-1 -17,-3 -5,-2 -7,-10 -7,-23l0 -248 76 0c18,0 34,2 48,7 30,10 45,34 45,73l12 0 0 -171 -12 0c0,21 -4,38 -12,49 -14,20 -40,30 -78,30l-79 0 0 -287 178 0c31,1 55,11 71,30 17,19 25,41 25,66l12 0 0 -108 -396 0 0 12 16 0c9,0 16,1 20,4 4,2 7,9 7,21l0 524c0,11 -2,18 -7,21 -4,2 -11,4 -20,4l-16 0 0 12 153 0z"/>
     <path class="fil0" d="M3925 2387l0 -12 19 0c7,0 12,-1 17,-3 5,-2 7,-10 7,-23l0 -248 -76 0c-18,0 -34,2 -48,7 -30,10 -45,34 -45,73l-12 0 0 -171 12 0c0,21 4,38 12,49 14,20 40,30 78,30l79 0 0 -287 -178 0c-31,1 -55,11 -71,30 -16,19 -25,41 -25,66l-12 0 0 -108 396 0 0 12 -16 0c-9,0 -16,1 -20,4 -4,2 -7,9 -7,21l0 524c0,11 2,18 7,21 4,2 11,4 20,4l16 0 0 12 -153 0z"/>
     <path class="fil0" d="M5024 2387l0 -12 -19 0c-7,0 -12,-1 -17,-3 -5,-2 -7,-10 -7,-23l0 -248 76 0c18,0 34,2 48,7 30,10 45,34 45,73l12 0 0 -171 -12 0c0,21 -4,38 -12,49 -14,20 -40,30 -78,30l-79 0 0 -287 178 0c31,1 55,11 71,30 17,19 25,41 25,66l12 0 0 -108 -396 0 0 12 16 0c9,0 16,1 20,4 4,2 7,9 7,21l0 524c0,11 -2,18 -7,21 -4,2 -11,4 -20,4l-16 0 0 12 153 0z"/>
     <path class="fil0" d="M4717 2387l0 -12 19 0c7,0 12,-1 17,-3 5,-2 7,-10 7,-23l0 -248 -76 0c-18,0 -34,2 -48,7 -30,10 -45,34 -45,73l-12 0 0 -171 12 0c0,21 4,38 12,49 14,20 40,30 78,30l79 0 0 -287 -178 0c-31,1 -55,11 -71,30 -17,19 -25,41 -25,66l-12 0 0 -108 396 0 0 12 -16 0c-9,0 -16,1 -20,4 -4,2 -7,9 -7,21l0 524c0,11 2,18 7,21 4,2 11,4 20,4l16 0 0 12 -153 0z"/>
     <path class="fil0" d="M5817 2387l0 -12 -19 0c-7,0 -12,-1 -17,-3 -5,-2 -7,-10 -7,-23l0 -248 76 0c18,0 34,2 48,7 30,10 45,34 45,73l12 0 0 -171 -12 0c0,21 -4,38 -12,49 -14,20 -40,30 -78,30l-79 0 0 -287 178 0c31,1 55,11 71,30 17,19 25,41 25,66l12 0 0 -108 -396 0 0 12 16 0c9,0 16,1 20,4 4,2 7,9 7,21l0 524c0,11 -2,18 -7,21 -4,2 -11,4 -20,4l-16 0 0 12 153 0z"/>
     <path class="fil0" d="M5510 2387l0 -12 19 0c7,0 12,-1 17,-3 5,-2 7,-10 7,-23l0 -248 -76 0c-18,0 -34,2 -48,7 -30,10 -45,34 -45,73l-12 0 0 -171 12 0c0,21 4,38 12,49 14,20 40,30 78,30l79 0 0 -287 -178 0c-31,1 -55,11 -71,30 -17,19 -25,41 -25,66l-12 0 0 -108 396 0 0 12 -16 0c-9,0 -16,1 -20,4 -4,2 -7,9 -7,21l0 524c0,11 2,18 7,21 4,2 11,4 20,4l16 0 0 12 -153 0z"/>
     <path class="fil0" d="M268 2387l0 -12 -19 0c-7,0 -12,-1 -17,-3 -5,-2 -7,-10 -7,-23l0 -248 76 0c18,0 34,2 48,7 30,10 45,34 45,73l12 0 0 -171 -12 0c0,21 -4,38 -12,49 -14,20 -40,30 -78,30l-79 0 0 -287 178 0c31,1 55,11 71,30 17,19 25,41 25,66l12 0 0 -108 -396 0 0 12 16 0c9,0 16,1 20,4 4,2 7,9 7,21l0 524c0,11 -2,18 -7,21 -4,2 -11,4 -20,4l-16 0 0 12 153 0z"/>
     <path class="fil0" d="M0 2370c3,-4 4,-11 4,-21l0 -248 -4 0 0 -12 4 0 0 -287 -4 0 0 -12 115 0 0 12 -16 0c-9,0 -16,1 -20,4 -4,2 -7,9 -7,21l0 524c0,11 2,18 7,21 4,2 11,4 20,4l16 0 0 12 -115 0 0 -17z"/>
     <path class="fil0" d="M1061 2387l0 -12 -19 0c-7,0 -12,-1 -17,-3 -5,-2 -7,-10 -7,-23l0 -248 76 0c18,0 34,2 48,7 30,10 45,34 45,73l12 0 0 -171 -12 0c0,21 -4,38 -12,49 -14,20 -40,30 -78,30l-79 0 0 -287 178 0c31,1 55,11 71,30 17,19 25,41 25,66l12 0 0 -108 -396 0 0 12 16 0c9,0 16,1 20,4 4,2 7,9 7,21l0 524c0,11 -2,18 -7,21 -4,2 -11,4 -20,4l-16 0 0 12 153 0z"/>
     <path class="fil0" d="M754 2387l0 -12 19 0c7,0 12,-1 17,-3 5,-2 7,-10 7,-23l0 -248 -76 0c-18,0 -34,2 -48,7 -30,10 -45,34 -45,73l-12 0 0 -171 12 0c0,21 4,38 12,49 14,20 40,30 78,30l79 0 0 -287 -178 0c-31,1 -55,11 -71,30 -17,19 -25,41 -25,66l-12 0 0 -108 396 0 0 12 -16 0c-9,0 -16,1 -20,4 -4,2 -7,9 -7,21l0 524c0,11 2,18 7,21 4,2 11,4 20,4l16 0 0 12 -153 0z"/>
     <path class="fil0" d="M1853 2387l0 -12 -19 0c-7,0 -12,-1 -17,-3 -5,-2 -7,-10 -7,-23l0 -248 76 0c18,0 34,2 48,7 30,10 45,34 45,73l12 0 0 -171 -12 0c0,21 -4,38 -12,49 -14,20 -40,30 -78,30l-79 0 0 -287 178 0c31,1 55,11 71,30 17,19 25,41 25,66l12 0 0 -108 -396 0 0 12 16 0c9,0 16,1 20,4 4,2 7,9 7,21l0 524c0,11 -2,18 -7,21 -4,2 -11,4 -20,4l-16 0 0 12 153 0z"/>
     <path class="fil0" d="M1547 2387l0 -12 19 0c7,0 12,-1 17,-3 5,-2 7,-10 7,-23l0 -248 -76 0c-18,0 -34,2 -48,7 -30,10 -45,34 -45,73l-12 0 0 -171 12 0c0,21 4,38 12,49 14,20 40,30 78,30l79 0 0 -287 -178 0c-31,1 -55,11 -71,30 -17,19 -25,41 -25,66l-12 0 0 -108 396 0 0 12 -16 0c-9,0 -16,1 -20,4 -4,2 -7,9 -7,21l0 524c0,11 2,18 7,21 4,2 11,4 20,4l16 0 0 12 -153 0z"/>
     <path class="fil0" d="M2646 2387l0 -12 -19 0c-7,0 -12,-1 -17,-3 -5,-2 -7,-10 -7,-23l0 -248 76 0c18,0 34,2 48,7 30,10 45,34 45,73l12 0 0 -171 -12 0c0,21 -4,38 -12,49 -14,20 -40,30 -78,30l-79 0 0 -287 178 0c31,1 55,11 71,30 17,19 25,41 25,66l12 0 0 -108 -396 0 0 12 16 0c9,0 16,1 20,4 4,2 7,9 7,21l0 524c0,11 -2,18 -7,21 -4,2 -11,4 -20,4l-16 0 0 12 153 0z"/>
     <path class="fil0" d="M2339 2387l0 -12 19 0c7,0 12,-1 17,-3 5,-2 7,-10 7,-23l0 -248 -76 0c-18,0 -34,2 -48,7 -30,10 -45,34 -45,73l-12 0 0 -171 12 0c0,21 4,38 12,49 14,20 40,30 78,30l79 0 0 -287 -178 0c-31,1 -55,11 -71,30 -17,19 -25,41 -25,66l-12 0 0 -108 396 0 0 12 -16 0c-9,0 -16,1 -20,4 -4,2 -7,9 -7,21l0 524c0,11 2,18 7,21 4,2 11,4 20,4l16 0 0 12 -153 0z"/>
     <path class="fil1" d="M1295 2154c12,0 23,-3 33,-9 10,-6 18,-14 23,-23 6,-10 9,-21 9,-33 0,-12 -3,-23 -9,-33 -6,-10 -14,-18 -23,-23 -10,-6 -21,-9 -33,-9 -12,0 -23,3 -33,9 -10,6 -18,14 -24,23 -6,10 -9,21 -9,33 0,12 3,23 9,33 6,10 14,18 24,23 10,6 21,9 33,9zm0 -4c-8,0 -16,-3 -23,-8 -7,-6 -12,-13 -16,-22 -4,-9 -6,-20 -6,-31 0,-11 2,-22 6,-31 4,-9 9,-17 16,-22 7,-6 14,-8 23,-8 8,0 16,3 23,8 7,6 12,13 16,22 4,9 6,20 6,31 0,11 -2,22 -6,31 -4,9 -9,17 -16,22 -7,6 -14,8 -23,8z"/>
     <path class="fil1" d="M511 2154c12,0 23,-3 33,-9 10,-6 18,-14 23,-23 6,-10 9,-21 9,-33 0,-12 -3,-23 -9,-33 -6,-10 -14,-18 -23,-23 -10,-6 -21,-9 -33,-9 -12,0 -23,3 -33,9 -10,6 -18,14 -24,23 -6,10 -9,21 -9,33 0,12 3,23 9,33 6,10 14,18 24,23 10,6 21,9 33,9zm0 -4c-8,0 -16,-3 -23,-8 -7,-6 -12,-13 -16,-22 -4,-9 -6,-20 -6,-31 0,-11 2,-22 6,-31 4,-9 9,-17 16,-22 7,-6 14,-8 23,-8 8,0 16,3 23,8 7,6 12,13 16,22 4,9 6,20 6,31 0,11 -2,22 -6,31 -4,9 -9,17 -16,22 -7,6 -14,8 -23,8z"/>
     <path class="fil1" d="M2096 2154c12,0 23,-3 33,-9 10,-6 18,-14 23,-23 6,-10 9,-21 9,-33 0,-12 -3,-23 -9,-33 -6,-10 -14,-18 -23,-23 -10,-6 -21,-9 -33,-9 -12,0 -23,3 -33,9 -10,6 -18,14 -24,23 -6,10 -9,21 -9,33 0,12 3,23 9,33 6,10 14,18 24,23 10,6 21,9 33,9zm0 -4c-8,0 -16,-3 -23,-8 -7,-6 -12,-13 -16,-22 -4,-9 -6,-20 -6,-31 0,-11 2,-22 6,-31 4,-9 9,-17 16,-22 7,-6 14,-8 23,-8 8,0 16,3 23,8 7,6 12,13 16,22 4,9 6,20 6,31 0,11 -2,22 -6,31 -4,9 -9,17 -16,22 -7,6 -14,8 -23,8z"/>
     <path class="fil1" d="M2889 2154c12,0 23,-3 33,-9 10,-6 18,-14 23,-23 6,-10 9,-21 9,-33 0,-12 -3,-23 -9,-33 -6,-10 -14,-18 -23,-23 -10,-6 -21,-9 -33,-9 -12,0 -23,3 -33,9 -10,6 -18,14 -24,23 -6,10 -9,21 -9,33 0,12 3,23 9,33 6,10 14,18 24,23 10,6 21,9 33,9zm0 -4c-8,0 -16,-3 -23,-8 -7,-6 -12,-13 -16,-22 -4,-9 -6,-20 -6,-31 0,-11 2,-22 6,-31 4,-9 9,-17 16,-22 7,-6 14,-8 23,-8 8,0 16,3 23,8 7,6 12,13 16,22 4,9 6,20 6,31 0,11 -2,22 -6,31 -4,9 -9,17 -16,22 -7,6 -14,8 -23,8z"/>
     <path class="fil1" d="M3682 2155c12,0 23,-3 33,-9 10,-6 18,-14 23,-23 6,-10 9,-21 9,-33 0,-12 -3,-23 -9,-33 -6,-10 -14,-18 -23,-23 -10,-6 -21,-9 -33,-9 -12,0 -23,3 -33,9 -10,6 -18,14 -24,23 -6,10 -9,21 -9,33 0,12 3,23 9,33 6,10 14,18 24,23 10,6 21,9 33,9zm0 -4c-8,0 -16,-3 -23,-8 -7,-6 -12,-13 -16,-22 -4,-9 -6,-20 -6,-31 0,-11 2,-22 6,-31 4,-9 9,-17 16,-22 7,-6 14,-8 23,-8 8,0 16,3 23,8 7,6 12,13 16,22 4,9 6,20 6,31 0,11 -2,22 -6,31 -4,9 -9,17 -16,22 -7,6 -14,8 -23,8z"/>
     <path class="fil1" d="M4474 2154c12,0 23,-3 33,-9 10,-6 18,-14 23,-23 6,-10 9,-21 9,-33 0,-12 -3,-23 -9,-33 -6,-10 -14,-18 -23,-23 -10,-6 -21,-9 -33,-9 -12,0 -23,3 -33,9 -10,6 -18,14 -24,23 -6,10 -9,21 -9,33 0,12 3,23 9,33 6,10 14,18 24,23 10,6 21,9 33,9zm0 -4c-8,0 -16,-3 -23,-8 -7,-6 -12,-13 -16,-22 -4,-9 -6,-20 -6,-31 0,-11 2,-22 6,-31 4,-9 9,-17 16,-22 7,-6 14,-8 23,-8 8,0 16,3 23,8 7,6 12,13 16,22 4,9 6,20 6,31 0,11 -2,22 -6,31 -4,9 -9,17 -16,22 -7,6 -14,8 -23,8z"/>
     <path class="fil1" d="M5267 2154c12,0 23,-3 33,-9 10,-6 18,-14 23,-23 6,-10 9,-21 9,-33 0,-12 -3,-23 -9,-33 -6,-10 -14,-18 -23,-23 -10,-6 -21,-9 -33,-9 -12,0 -23,3 -33,9 -10,6 -18,14 -24,23 -6,10 -9,21 -9,33 0,12 3,23 9,33 6,10 14,18 24,23 10,6 21,9 33,9zm0 -4c-8,0 -16,-3 -23,-8 -7,-6 -12,-13 -16,-22 -4,-9 -6,-20 -6,-31 0,-11 2,-22 6,-31 4,-9 9,-17 16,-22 7,-6 14,-8 23,-8 8,0 16,3 23,8 7,6 12,13 16,22 4,9 6,20 6,31 0,11 -2,22 -6,31 -4,9 -9,17 -16,22 -7,6 -14,8 -23,8z"/>
    </g>
   </g>
   <path class="fil0" d="M8293 1194l0 -12 19 0c7,0 12,-1 17,-3 5,-2 7,-10 7,-23l0 -248 -76 0c-18,0 -34,2 -48,7 -30,10 -45,34 -45,73l-12 0 0 -171 12 0c0,21 4,38 12,49 14,20 40,30 78,30l79 0 0 -287 -178 0c-31,1 -55,11 -71,30 -17,19 -25,41 -25,66l-12 0 0 -108 303 0 0 597 -60 0z"/>
   <path class="fil0" d="M7500 1194l0 -12 19 0c7,0 12,-1 17,-3 5,-2 7,-10 7,-23l0 -248 -76 0c-18,0 -34,2 -48,7 -30,10 -45,34 -45,73l-12 0 0 -171 12 0c0,21 4,38 12,49 14,20 40,30 78,30l79 0 0 -287 -178 0c-31,1 -55,11 -71,30 -17,19 -25,41 -25,66l-12 0 0 -108 396 0 0 12 -16 0c-9,0 -16,1 -20,4 -4,2 -7,9 -7,21l0 524c0,11 2,18 7,21 4,2 11,4 20,4l16 0 0 12 -153 0z"/>
   <path class="fil0" d="M7807 1194l0 -12 -19 0c-7,0 -12,-1 -17,-3 -5,-2 -7,-10 -7,-23l0 -248 76 0c18,0 34,2 48,7 30,10 45,34 45,73l12 0 0 -171 -12 0c0,21 -4,38 -12,49 -14,20 -40,30 -78,30l-79 0 0 -287 178 0c31,1 55,11 71,30 17,19 25,41 25,66l12 0 0 -108 -396 0 0 12 16 0c9,0 16,1 20,4 4,2 7,9 7,21l0 524c0,11 -2,18 -7,21 -4,2 -11,4 -20,4l-16 0 0 12 153 0z"/>
   <path class="fil0" d="M6708 1194l0 -12 19 0c7,0 12,-1 17,-3 5,-2 7,-10 7,-23l0 -248 -76 0c-18,0 -34,2 -48,7 -30,10 -45,34 -45,73l-12 0 0 -171 12 0c0,21 4,38 12,49 14,20 40,30 78,30l79 0 0 -287 -178 0c-31,1 -55,11 -71,30 -17,19 -25,41 -25,66l-12 0 0 -108 396 0 0 12 -16 0c-9,0 -16,1 -20,4 -4,2 -7,9 -7,21l0 524c0,11 2,18 7,21 4,2 11,4 20,4l16 0 0 12 -153 0z"/>
   <path class="fil0" d="M7014 1194l0 -12 -19 0c-7,0 -12,-1 -17,-3 -5,-2 -7,-10 -7,-23l0 -248 76 0c18,0 34,2 48,7 30,10 45,34 45,73l12 0 0 -171 -12 0c0,21 -4,38 -12,49 -14,20 -40,30 -78,30l-79 0 0 -287 178 0c31,1 55,11 71,30 17,19 25,41 25,66l12 0 0 -108 -396 0 0 12 16 0c9,0 16,1 20,4 4,2 7,9 7,21l0 524c0,11 -2,18 -7,21 -4,2 -11,4 -20,4l-16 0 0 12 153 0z"/>
   <path class="fil0" d="M8301 1790l0 -12 19 0c7,0 12,-1 17,-3 5,-2 7,-10 7,-23l0 -248 -76 0c-18,0 -34,2 -48,7 -30,10 -45,34 -45,73l-12 0 0 -171 12 0c0,21 4,38 12,49 14,20 40,30 78,30l79 0 0 -287 -178 0c-31,1 -55,11 -71,30 -17,19 -25,41 -25,66l-12 0 0 -108 295 0 0 597 -52 0z"/>
   <path class="fil0" d="M7509 1790l0 -12 19 0c7,0 12,-1 17,-3 5,-2 7,-10 7,-23l0 -248 -76 0c-18,0 -34,2 -48,7 -30,10 -45,34 -45,73l-12 0 0 -171 12 0c0,21 4,38 12,49 14,20 40,30 78,30l79 0 0 -287 -178 0c-31,1 -55,11 -71,30 -17,19 -25,41 -25,66l-12 0 0 -108 396 0 0 12 -16 0c-9,0 -16,1 -20,4 -4,2 -7,9 -7,21l0 524c0,11 2,18 7,21 4,2 11,4 20,4l16 0 0 12 -153 0z"/>
   <path class="fil0" d="M7815 1790l0 -12 -19 0c-7,0 -12,-1 -17,-3 -5,-2 -7,-10 -7,-23l0 -248 76 0c18,0 34,2 48,7 30,10 45,34 45,73l12 0 0 -171 -12 0c0,21 -4,38 -12,49 -14,20 -40,30 -78,30l-79 0 0 -287 178 0c31,1 55,11 71,30 17,19 25,41 25,66l12 0 0 -108 -396 0 0 12 16 0c9,0 16,1 20,4 4,2 7,9 7,21l0 524c0,11 -2,18 -7,21 -4,2 -11,4 -20,4l-16 0 0 12 153 0z"/>
   <path class="fil0" d="M6716 1790l0 -12 19 0c7,0 12,-1 17,-3 5,-2 7,-10 7,-23l0 -248 -76 0c-18,0 -34,2 -48,7 -30,10 -45,34 -45,73l-12 0 0 -171 12 0c0,21 4,38 12,49 14,20 40,30 78,30l79 0 0 -287 -178 0c-31,1 -55,11 -71,30 -17,19 -25,41 -25,66l-12 0 0 -108 396 0 0 12 -16 0c-9,0 -16,1 -20,4 -4,2 -7,9 -7,21l0 524c0,11 2,18 7,21 4,2 11,4 20,4l16 0 0 12 -153 0z"/>
   <path class="fil0" d="M7023 1790l0 -12 -19 0c-7,0 -12,-1 -17,-3 -5,-2 -7,-10 -7,-23l0 -248 76 0c18,0 34,2 48,7 30,10 45,34 45,73l12 0 0 -171 -12 0c0,21 -4,38 -12,49 -14,20 -40,30 -78,30l-79 0 0 -287 178 0c31,1 55,11 71,30 17,19 25,41 25,66l12 0 0 -108 -396 0 0 12 16 0c9,0 16,1 20,4 4,2 7,9 7,21l0 524c0,11 -2,18 -7,21 -4,2 -11,4 -20,4l-16 0 0 12 153 0z"/>
   <path class="fil0" d="M6222 1194l0 -12 -19 0c-7,0 -12,-1 -17,-3 -5,-2 -7,-10 -7,-23l0 -248 76 0c18,0 34,2 48,7 30,10 45,34 45,73l12 0 0 -171 -12 0c0,21 -4,38 -12,49 -14,20 -40,30 -78,30l-79 0 0 -287 178 0c31,1 55,11 71,30 17,19 25,41 25,66l12 0 0 -108 -396 0 0 12 16 0c9,0 16,1 20,4 4,2 7,9 7,21l0 524c0,11 -2,18 -7,21 -4,2 -11,4 -20,4l-16 0 0 12 153 0z"/>
   <path class="fil0" d="M6230 1790l0 -12 -19 0c-7,0 -12,-1 -17,-3 -5,-2 -7,-10 -7,-23l0 -248 76 0c18,0 34,2 48,7 30,10 45,34 45,73l12 0 0 -171 -12 0c0,21 -4,38 -12,49 -14,20 -40,30 -78,30l-79 0 0 -287 178 0c31,1 55,11 71,30 17,19 25,41 25,66l12 0 0 -108 -396 0 0 12 16 0c9,0 16,1 20,4 4,2 7,9 7,21l0 524c0,11 -2,18 -7,21 -4,2 -11,4 -20,4l-16 0 0 12 153 0z"/>
   <path class="fil1" d="M8050 960c-12,0 -23,-3 -33,-9 -10,-6 -18,-14 -23,-23 -6,-10 -9,-21 -9,-33 0,-12 3,-23 9,-33 6,-10 14,-18 23,-23 10,-6 21,-9 33,-9 12,0 23,3 33,9 10,6 18,14 24,23 6,10 9,21 9,33 0,12 -3,23 -9,33 -6,10 -14,18 -24,23 -10,6 -21,9 -33,9zm0 -4c8,0 16,-3 23,-8 7,-6 12,-13 16,-22 4,-9 6,-20 6,-31 0,-11 -2,-22 -6,-31 -4,-9 -9,-17 -16,-22 -7,-6 -14,-8 -23,-8 -8,0 -16,3 -23,8 -7,6 -12,13 -16,22 -4,9 -6,20 -6,31 0,11 2,22 6,31 4,9 9,17 16,22 7,6 14,8 23,8z"/>
   <path class="fil1" d="M7257 960c-12,0 -23,-3 -33,-9 -10,-6 -18,-14 -23,-23 -6,-10 -9,-21 -9,-33 0,-12 3,-23 9,-33 6,-10 14,-18 23,-23 10,-6 21,-9 33,-9 12,0 23,3 33,9 10,6 18,14 24,23 6,10 9,21 9,33 0,12 -3,23 -9,33 -6,10 -14,18 -24,23 -10,6 -21,9 -33,9zm0 -4c8,0 16,-3 23,-8 7,-6 12,-13 16,-22 4,-9 6,-20 6,-31 0,-11 -2,-22 -6,-31 -4,-9 -9,-17 -16,-22 -7,-6 -14,-8 -23,-8 -8,0 -16,3 -23,8 -7,6 -12,13 -16,22 -4,9 -6,20 -6,31 0,11 2,22 6,31 4,9 9,17 16,22 7,6 14,8 23,8z"/>
   <path class="fil1" d="M6465 960c-12,0 -23,-3 -33,-9 -10,-6 -18,-14 -23,-23 -6,-10 -9,-21 -9,-33 0,-12 3,-23 9,-33 6,-10 14,-18 23,-23 10,-6 21,-9 33,-9 12,0 23,3 33,9 10,6 18,14 24,23 6,10 9,21 9,33 0,12 -3,23 -9,33 -6,10 -14,18 -24,23 -10,6 -21,9 -33,9zm0 -4c8,0 16,-3 23,-8 7,-6 12,-13 16,-22 4,-9 6,-20 6,-31 0,-11 -2,-22 -6,-31 -4,-9 -9,-17 -16,-22 -7,-6 -14,-8 -23,-8 -8,0 -16,3 -23,8 -7,6 -12,13 -16,22 -4,9 -6,20 -6,31 0,11 2,22 6,31 4,9 9,17 16,22 7,6 14,8 23,8z"/>
   <path class="fil1" d="M8050 1573c-12,0 -23,-3 -33,-9 -10,-6 -18,-14 -23,-23 -6,-10 -9,-21 -9,-33 0,-12 3,-23 9,-33 6,-10 14,-18 23,-23 10,-6 21,-9 33,-9 12,0 23,3 33,9 10,6 18,14 24,23 6,10 9,21 9,33 0,12 -3,23 -9,33 -6,10 -14,18 -24,23 -10,6 -21,9 -33,9zm0 -4c8,0 16,-3 23,-8 7,-6 12,-13 16,-22 4,-9 6,-20 6,-31 0,-11 -2,-22 -6,-31 -4,-9 -9,-17 -16,-22 -7,-6 -14,-8 -23,-8 -8,0 -16,3 -23,8 -7,6 -12,13 -16,22 -4,9 -6,20 -6,31 0,11 2,22 6,31 4,9 9,17 16,22 7,6 14,8 23,8z"/>
   <path class="fil1" d="M7257 1573c-12,0 -23,-3 -33,-9 -10,-6 -18,-14 -23,-23 -6,-10 -9,-21 -9,-33 0,-12 3,-23 9,-33 6,-10 14,-18 23,-23 10,-6 21,-9 33,-9 12,0 23,3 33,9 10,6 18,14 24,23 6,10 9,21 9,33 0,12 -3,23 -9,33 -6,10 -14,18 -24,23 -10,6 -21,9 -33,9zm0 -4c8,0 16,-3 23,-8 7,-6 12,-13 16,-22 4,-9 6,-20 6,-31 0,-11 -2,-22 -6,-31 -4,-9 -9,-17 -16,-22 -7,-6 -14,-8 -23,-8 -8,0 -16,3 -23,8 -7,6 -12,13 -16,22 -4,9 -6,20 -6,31 0,11 2,22 6,31 4,9 9,17 16,22 7,6 14,8 23,8z"/>
   <path class="fil1" d="M6465 1573c-12,0 -23,-3 -33,-9 -10,-6 -18,-14 -23,-23 -6,-10 -9,-21 -9,-33 0,-12 3,-23 9,-33 6,-10 14,-18 23,-23 10,-6 21,-9 33,-9 12,0 23,3 33,9 10,6 18,14 24,23 6,10 9,21 9,33 0,12 -3,23 -9,33 -6,10 -14,18 -24,23 -10,6 -21,9 -33,9zm0 -4c8,0 16,-3 23,-8 7,-6 12,-13 16,-22 4,-9 6,-20 6,-31 0,-11 -2,-22 -6,-31 -4,-9 -9,-17 -16,-22 -7,-6 -14,-8 -23,-8 -8,0 -16,3 -23,8 -7,6 -12,13 -16,22 -4,9 -6,20 -6,31 0,11 2,22 6,31 4,9 9,17 16,22 7,6 14,8 23,8z"/>
   <g>
    <path class="fil0" d="M7898 597l0 -12 19 0c7,0 12,-1 17,-3 5,-2 7,-10 7,-23l0 -248 -76 0c-18,0 -34,2 -48,7 -30,10 -45,34 -45,73l-12 0 0 -171 12 0c0,21 4,38 12,49 14,20 40,30 78,30l79 0 0 -287 -178 0c-31,1 -55,11 -71,30 -17,19 -25,41 -25,66l-12 0 0 -108 396 0 0 12 -16 0c-9,0 -16,1 -20,4 -4,2 -7,9 -7,21l0 524c0,11 2,18 7,21 4,2 11,4 20,4l16 0 0 12 -153 0z"/>
    <path class="fil0" d="M8204 597l0 -12 -19 0c-7,0 -12,-1 -17,-3 -5,-2 -7,-10 -7,-23l0 -248 76 0c18,0 34,2 48,7 30,10 45,34 45,73l12 0 0 -171 -12 0c0,21 -4,38 -12,49 -14,20 -40,30 -78,30l-79 0 0 -287 178 0c5,0 10,1 14,1l0 -13 -303 0 0 12 16 0c9,0 16,1 20,4 4,2 7,9 7,21l0 524c0,11 -2,18 -7,21 -4,2 -11,4 -20,4l-16 0 0 12 153 0z"/>
    <path class="fil0" d="M7105 597l0 -12 19 0c7,0 12,-1 17,-3 5,-2 7,-10 7,-23l0 -248 -76 0c-18,0 -34,2 -48,7 -30,10 -45,34 -45,73l-12 0 0 -171 12 0c0,21 4,38 12,49 14,20 40,30 78,30l79 0 0 -287 -178 0c-31,1 -55,11 -71,30 -17,19 -25,41 -25,66l-12 0 0 -108 396 0 0 12 -16 0c-9,0 -16,1 -20,4 -4,2 -7,9 -7,21l0 524c0,11 2,18 7,21 4,2 11,4 20,4l16 0 0 12 -153 0z"/>
    <path class="fil0" d="M7412 597l0 -12 -19 0c-7,0 -12,-1 -17,-3 -5,-2 -7,-10 -7,-23l0 -248 76 0c18,0 34,2 48,7 30,10 45,34 45,73l12 0 0 -171 -12 0c0,21 -4,38 -12,49 -14,20 -40,30 -78,30l-79 0 0 -287 178 0c31,1 55,11 71,30 17,19 25,41 25,66l12 0 0 -108 -396 0 0 12 16 0c9,0 16,1 20,4 4,2 7,9 7,21l0 524c0,11 -2,18 -7,21 -4,2 -11,4 -20,4l-16 0 0 12 153 0z"/>
    <path class="fil0" d="M6312 597l0 -12 19 0c7,0 12,-1 17,-3 5,-2 7,-10 7,-23l0 -248 -76 0c-18,0 -34,2 -48,7 -30,10 -45,34 -45,73l-12 0 0 -171 12 0c0,21 4,38 12,49 14,20 40,30 78,30l79 0 0 -287 -178 0c-31,1 -55,11 -71,30 -17,19 -25,41 -25,66l-12 0 0 -108 396 0 0 12 -16 0c-9,0 -16,1 -20,4 -4,2 -7,9 -7,21l0 524c0,11 2,18 7,21 4,2 11,4 20,4l16 0 0 12 -153 0z"/>
    <path class="fil0" d="M6619 597l0 -12 -19 0c-7,0 -12,-1 -17,-3 -5,-2 -7,-10 -7,-23l0 -248 76 0c18,0 34,2 48,7 30,10 45,34 45,73l12 0 0 -171 -12 0c0,21 -4,38 -12,49 -14,20 -40,30 -78,30l-79 0 0 -287 178 0c31,1 55,11 71,30 17,19 25,41 25,66l12 0 0 -108 -396 0 0 12 16 0c9,0 16,1 20,4 4,2 7,9 7,21l0 524c0,11 -2,18 -7,21 -4,2 -11,4 -20,4l-16 0 0 12 153 0z"/>
    <path class="fil1" d="M7655 363c-12,0 -23,-3 -33,-9 -10,-6 -18,-14 -23,-23 -6,-10 -9,-21 -9,-33 0,-12 3,-23 9,-33 6,-10 14,-18 23,-23 10,-6 21,-9 33,-9 12,0 23,3 33,9 10,6 18,14 24,23 6,10 9,21 9,33 0,12 -3,23 -9,33 -6,10 -14,18 -24,23 -10,6 -21,9 -33,9zm0 -4c8,0 16,-3 23,-8 7,-6 12,-13 16,-22 4,-9 6,-20 6,-31 0,-11 -2,-22 -6,-31 -4,-9 -9,-17 -16,-22 -7,-6 -14,-8 -23,-8 -8,0 -16,3 -23,8 -7,6 -12,13 -16,22 -4,9 -6,20 -6,31 0,11 2,22 6,31 4,9 9,17 16,22 7,6 14,8 23,8z"/>
    <path class="fil1" d="M6862 363c-12,0 -23,-3 -33,-9 -10,-6 -18,-14 -23,-23 -6,-10 -9,-21 -9,-33 0,-12 3,-23 9,-33 6,-10 14,-18 23,-23 10,-6 21,-9 33,-9 12,0 23,3 33,9 10,6 18,14 24,23 6,10 9,21 9,33 0,12 -3,23 -9,33 -6,10 -14,18 -24,23 -10,6 -21,9 -33,9zm0 -4c8,0 16,-3 23,-8 7,-6 12,-13 16,-22 4,-9 6,-20 6,-31 0,-11 -2,-22 -6,-31 -4,-9 -9,-17 -16,-22 -7,-6 -14,-8 -23,-8 -8,0 -16,3 -23,8 -7,6 -12,13 -16,22 -4,9 -6,20 -6,31 0,11 2,22 6,31 4,9 9,17 16,22 7,6 14,8 23,8z"/>
   </g>
   <g>
    <path class="fil0" d="M8301 2984l0 -12 19 0c7,0 12,-1 17,-3 5,-2 7,-10 7,-23l0 -248 -76 0c-18,0 -34,2 -48,7 -30,10 -45,34 -45,73l-12 0 0 -171 12 0c0,21 4,38 12,49 14,20 40,30 78,30l79 0 0 -287 -178 0c-31,1 -55,11 -71,30 -17,19 -25,41 -25,66l-12 0 0 -108 295 0 0 597 -52 0z"/>
    <path class="fil0" d="M7509 2984l0 -12 19 0c7,0 12,-1 17,-3 5,-2 7,-10 7,-23l0 -248 -76 0c-18,0 -34,2 -48,7 -30,10 -45,34 -45,73l-12 0 0 -171 12 0c0,21 4,38 12,49 14,20 40,30 78,30l79 0 0 -287 -178 0c-31,1 -55,11 -71,30 -17,19 -25,41 -25,66l-12 0 0 -108 396 0 0 12 -16 0c-9,0 -16,1 -20,4 -4,2 -7,9 -7,21l0 524c0,11 2,18 7,21 4,2 11,4 20,4l16 0 0 12 -153 0z"/>
    <path class="fil0" d="M7815 2984l0 -12 -19 0c-7,0 -12,-1 -17,-3 -5,-2 -7,-10 -7,-23l0 -248 76 0c18,0 34,2 48,7 30,10 45,34 45,73l12 0 0 -171 -12 0c0,21 -4,38 -12,49 -14,20 -40,30 -78,30l-79 0 0 -287 178 0c31,1 55,11 71,30 17,19 25,41 25,66l12 0 0 -108 -396 0 0 12 16 0c9,0 16,1 20,4 4,2 7,9 7,21l0 524c0,11 -2,18 -7,21 -4,2 -11,4 -20,4l-16 0 0 12 153 0z"/>
    <path class="fil0" d="M6716 2984l0 -12 19 0c7,0 12,-1 17,-3 5,-2 7,-10 7,-23l0 -248 -76 0c-18,0 -34,2 -48,7 -30,10 -45,34 -45,73l-12 0 0 -171 12 0c0,21 4,38 12,49 14,20 40,30 78,30l79 0 0 -287 -178 0c-31,1 -55,11 -71,30 -17,19 -25,41 -25,66l-12 0 0 -108 396 0 0 12 -16 0c-9,0 -16,1 -20,4 -4,2 -7,9 -7,21l0 524c0,11 2,18 7,21 4,2 11,4 20,4l16 0 0 12 -153 0z"/>
    <path class="fil0" d="M7023 2984l0 -12 -19 0c-7,0 -12,-1 -17,-3 -5,-2 -7,-10 -7,-23l0 -248 76 0c18,0 34,2 48,7 30,10 45,34 45,73l12 0 0 -171 -12 0c0,21 -4,38 -12,49 -14,20 -40,30 -78,30l-79 0 0 -287 178 0c31,1 55,11 71,30 17,19 25,41 25,66l12 0 0 -108 -396 0 0 12 16 0c9,0 16,1 20,4 4,2 7,9 7,21l0 524c0,11 -2,18 -7,21 -4,2 -11,4 -20,4l-16 0 0 12 153 0z"/>
    <path class="fil0" d="M8310 3581l0 -12 19 0c7,0 12,-1 17,-3 5,-2 7,-10 7,-23l0 -248 -76 0c-18,0 -34,2 -48,7 -30,10 -45,34 -45,73l-12 0 0 -171 12 0c0,21 4,38 12,49 14,20 40,30 78,30l79 0 0 -287 -178 0c-31,1 -55,11 -71,30 -17,19 -25,41 -25,66l-12 0 0 -108 287 0 0 597 -44 0z"/>
    <path class="fil0" d="M7517 3581l0 -12 19 0c7,0 12,-1 17,-3 5,-2 7,-10 7,-23l0 -248 -76 0c-18,0 -34,2 -48,7 -30,10 -45,34 -45,73l-12 0 0 -171 12 0c0,21 4,38 12,49 14,20 40,30 78,30l79 0 0 -287 -178 0c-31,1 -55,11 -71,30 -17,19 -25,41 -25,66l-12 0 0 -108 396 0 0 12 -16 0c-9,0 -16,1 -20,4 -4,2 -7,9 -7,21l0 524c0,11 2,18 7,21 4,2 11,4 20,4l16 0 0 12 -153 0z"/>
    <path class="fil0" d="M7824 3581l0 -12 -19 0c-7,0 -12,-1 -17,-3 -5,-2 -7,-10 -7,-23l0 -248 76 0c18,0 34,2 48,7 30,10 45,34 45,73l12 0 0 -171 -12 0c0,21 -4,38 -12,49 -14,20 -40,30 -78,30l-79 0 0 -287 178 0c31,1 55,11 71,30 17,19 25,41 25,66l12 0 0 -108 -396 0 0 12 16 0c9,0 16,1 20,4 4,2 7,9 7,21l0 524c0,11 -2,18 -7,21 -4,2 -11,4 -20,4l-16 0 0 12 153 0z"/>
    <path class="fil0" d="M6724 3581l0 -12 19 0c7,0 12,-1 17,-3 5,-2 7,-10 7,-23l0 -248 -76 0c-18,0 -34,2 -48,7 -30,10 -45,34 -45,73l-12 0 0 -171 12 0c0,21 4,38 12,49 14,20 40,30 78,30l79 0 0 -287 -178 0c-31,1 -55,11 -71,30 -17,19 -25,41 -25,66l-12 0 0 -108 396 0 0 12 -16 0c-9,0 -16,1 -20,4 -4,2 -7,9 -7,21l0 524c0,11 2,18 7,21 4,2 11,4 20,4l16 0 0 12 -153 0z"/>
    <path class="fil0" d="M7031 3581l0 -12 -19 0c-7,0 -12,-1 -17,-3 -5,-2 -7,-10 -7,-23l0 -248 76 0c18,0 34,2 48,7 30,10 45,34 45,73l12 0 0 -171 -12 0c0,21 -4,38 -12,49 -14,20 -40,30 -78,30l-79 0 0 -287 178 0c31,1 55,11 71,30 17,19 25,41 25,66l12 0 0 -108 -396 0 0 12 16 0c9,0 16,1 20,4 4,2 7,9 7,21l0 524c0,11 -2,18 -7,21 -4,2 -11,4 -20,4l-16 0 0 12 153 0z"/>
    <path class="fil0" d="M6230 2984l0 -12 -19 0c-7,0 -12,-1 -17,-3 -5,-2 -7,-10 -7,-23l0 -248 76 0c18,0 34,2 48,7 30,10 45,34 45,73l12 0 0 -171 -12 0c0,21 -4,38 -12,49 -14,20 -40,30 -78,30l-79 0 0 -287 178 0c31,1 55,11 71,30 17,19 25,41 25,66l12 0 0 -108 -396 0 0 12 16 0c9,0 16,1 20,4 4,2 7,9 7,21l0 524c0,11 -2,18 -7,21 -4,2 -11,4 -20,4l-16 0 0 12 153 0z"/>
    <path class="fil0" d="M6238 3581l0 -12 -19 0c-7,0 -12,-1 -17,-3 -5,-2 -7,-10 -7,-23l0 -248 76 0c18,0 34,2 48,7 30,10 45,34 45,73l12 0 0 -171 -12 0c0,21 -4,38 -12,49 -14,20 -40,30 -78,30l-79 0 0 -287 178 0c31,1 55,11 71,30 17,19 25,41 25,66l12 0 0 -108 -396 0 0 12 16 0c9,0 16,1 20,4 4,2 7,9 7,21l0 524c0,11 -2,18 -7,21 -4,2 -11,4 -20,4l-16 0 0 12 153 0z"/>
    <path class="fil1" d="M8058 2751c-12,0 -23,-3 -33,-9 -10,-6 -18,-14 -23,-23 -6,-10 -9,-21 -9,-33 0,-12 3,-23 9,-33 6,-10 14,-18 23,-23 10,-6 21,-9 33,-9 12,0 23,3 33,9 10,6 18,14 24,23 6,10 9,21 9,33 0,12 -3,23 -9,33 -6,10 -14,18 -24,23 -10,6 -21,9 -33,9zm0 -4c8,0 16,-3 23,-8 7,-6 12,-13 16,-22 4,-9 6,-20 6,-31 0,-11 -2,-22 -6,-31 -4,-9 -9,-17 -16,-22 -7,-6 -14,-8 -23,-8 -8,0 -16,3 -23,8 -7,6 -12,13 -16,22 -4,9 -6,20 -6,31 0,11 2,22 6,31 4,9 9,17 16,22 7,6 14,8 23,8z"/>
    <path class="fil1" d="M7266 2751c-12,0 -23,-3 -33,-9 -10,-6 -18,-14 -23,-23 -6,-10 -9,-21 -9,-33 0,-12 3,-23 9,-33 6,-10 14,-18 23,-23 10,-6 21,-9 33,-9 12,0 23,3 33,9 10,6 18,14 24,23 6,10 9,21 9,33 0,12 -3,23 -9,33 -6,10 -14,18 -24,23 -10,6 -21,9 -33,9zm0 -4c8,0 16,-3 23,-8 7,-6 12,-13 16,-22 4,-9 6,-20 6,-31 0,-11 -2,-22 -6,-31 -4,-9 -9,-17 -16,-22 -7,-6 -14,-8 -23,-8 -8,0 -16,3 -23,8 -7,6 -12,13 -16,22 -4,9 -6,20 -6,31 0,11 2,22 6,31 4,9 9,17 16,22 7,6 14,8 23,8z"/>
    <path class="fil1" d="M6473 2751c-12,0 -23,-3 -33,-9 -10,-6 -18,-14 -23,-23 -6,-10 -9,-21 -9,-33 0,-12 3,-23 9,-33 6,-10 14,-18 23,-23 10,-6 21,-9 33,-9 12,0 23,3 33,9 10,6 18,14 24,23 6,10 9,21 9,33 0,12 -3,23 -9,33 -6,10 -14,18 -24,23 -10,6 -21,9 -33,9zm0 -4c8,0 16,-3 23,-8 7,-6 12,-13 16,-22 4,-9 6,-20 6,-31 0,-11 -2,-22 -6,-31 -4,-9 -9,-17 -16,-22 -7,-6 -14,-8 -23,-8 -8,0 -16,3 -23,8 -7,6 -12,13 -16,22 -4,9 -6,20 -6,31 0,11 2,22 6,31 4,9 9,17 16,22 7,6 14,8 23,8z"/>
    <path class="fil1" d="M8058 3363c-12,0 -23,-3 -33,-9 -10,-6 -18,-14 -23,-23 -6,-10 -9,-21 -9,-33 0,-12 3,-23 9,-33 6,-10 14,-18 23,-23 10,-6 21,-9 33,-9 12,0 23,3 33,9 10,6 18,14 24,23 6,10 9,21 9,33 0,12 -3,23 -9,33 -6,10 -14,18 -24,23 -10,6 -21,9 -33,9zm0 -4c8,0 16,-3 23,-8 7,-6 12,-13 16,-22 4,-9 6,-20 6,-31 0,-11 -2,-22 -6,-31 -4,-9 -9,-17 -16,-22 -7,-6 -14,-8 -23,-8 -8,0 -16,3 -23,8 -7,6 -12,13 -16,22 -4,9 -6,20 -6,31 0,11 2,22 6,31 4,9 9,17 16,22 7,6 14,8 23,8z"/>
    <path class="fil1" d="M7266 3363c-12,0 -23,-3 -33,-9 -10,-6 -18,-14 -23,-23 -6,-10 -9,-21 -9,-33 0,-12 3,-23 9,-33 6,-10 14,-18 23,-23 10,-6 21,-9 33,-9 12,0 23,3 33,9 10,6 18,14 24,23 6,10 9,21 9,33 0,12 -3,23 -9,33 -6,10 -14,18 -24,23 -10,6 -21,9 -33,9zm0 -4c8,0 16,-3 23,-8 7,-6 12,-13 16,-22 4,-9 6,-20 6,-31 0,-11 -2,-22 -6,-31 -4,-9 -9,-17 -16,-22 -7,-6 -14,-8 -23,-8 -8,0 -16,3 -23,8 -7,6 -12,13 -16,22 -4,9 -6,20 -6,31 0,11 2,22 6,31 4,9 9,17 16,22 7,6 14,8 23,8z"/>
    <path class="fil1" d="M6473 3363c-12,0 -23,-3 -33,-9 -10,-6 -18,-14 -23,-23 -6,-10 -9,-21 -9,-33 0,-12 3,-23 9,-33 6,-10 14,-18 23,-23 10,-6 21,-9 33,-9 12,0 23,3 33,9 10,6 18,14 24,23 6,10 9,21 9,33 0,12 -3,23 -9,33 -6,10 -14,18 -24,23 -10,6 -21,9 -33,9zm0 -4c8,0 16,-3 23,-8 7,-6 12,-13 16,-22 4,-9 6,-20 6,-31 0,-11 -2,-22 -6,-31 -4,-9 -9,-17 -16,-22 -7,-6 -14,-8 -23,-8 -8,0 -16,3 -23,8 -7,6 -12,13 -16,22 -4,9 -6,20 -6,31 0,11 2,22 6,31 4,9 9,17 16,22 7,6 14,8 23,8z"/>
    <g>
     <path class="fil0" d="M7906 2387l0 -12 19 0c7,0 12,-1 17,-3 5,-2 7,-10 7,-23l0 -248 -76 0c-18,0 -34,2 -48,7 -30,10 -45,34 -45,73l-12 0 0 -171 12 0c0,21 4,38 12,49 14,20 40,30 78,30l79 0 0 -287 -178 0c-31,1 -55,11 -71,30 -17,19 -25,41 -25,66l-12 0 0 -108 396 0 0 12 -16 0c-9,0 -16,1 -20,4 -4,2 -7,9 -7,21l0 524c0,11 2,18 7,21 4,2 11,4 20,4l16 0 0 12 -153 0z"/>
     <path class="fil0" d="M8213 2387l0 -12 -19 0c-7,0 -12,-1 -17,-3 -5,-2 -7,-10 -7,-23l0 -248 76 0c18,0 34,2 48,7 30,10 45,34 45,73l12 0 0 -171 -12 0c0,21 -4,38 -12,49 -14,20 -40,30 -78,30l-79 0 0 -287 178 0c2,0 4,0 6,0l0 -12 -294 0 0 12 16 0c9,0 16,1 20,4 4,2 7,9 7,21l0 524c0,11 -2,18 -7,21 -4,2 -11,4 -20,4l-16 0 0 12 153 0z"/>
     <path class="fil0" d="M7113 2387l0 -12 19 0c7,0 12,-1 17,-3 5,-2 7,-10 7,-23l0 -248 -76 0c-18,0 -34,2 -48,7 -30,10 -45,34 -45,73l-12 0 0 -171 12 0c0,21 4,38 12,49 14,20 40,30 78,30l79 0 0 -287 -178 0c-31,1 -55,11 -71,30 -17,19 -25,41 -25,66l-12 0 0 -108 396 0 0 12 -16 0c-9,0 -16,1 -20,4 -4,2 -7,9 -7,21l0 524c0,11 2,18 7,21 4,2 11,4 20,4l16 0 0 12 -153 0z"/>
     <path class="fil0" d="M7420 2387l0 -12 -19 0c-7,0 -12,-1 -17,-3 -5,-2 -7,-10 -7,-23l0 -248 76 0c18,0 34,2 48,7 30,10 45,34 45,73l12 0 0 -171 -12 0c0,21 -4,38 -12,49 -14,20 -40,30 -78,30l-79 0 0 -287 178 0c31,1 55,11 71,30 17,19 25,41 25,66l12 0 0 -108 -396 0 0 12 16 0c9,0 16,1 20,4 4,2 7,9 7,21l0 524c0,11 -2,18 -7,21 -4,2 -11,4 -20,4l-16 0 0 12 153 0z"/>
     <path class="fil0" d="M6320 2387l0 -12 19 0c7,0 12,-1 17,-3 5,-2 7,-10 7,-23l0 -248 -76 0c-18,0 -34,2 -48,7 -30,10 -45,34 -45,73l-12 0 0 -171 12 0c0,21 4,38 12,49 14,20 40,30 78,30l79 0 0 -287 -178 0c-31,1 -55,11 -71,30 -17,19 -25,41 -25,66l-12 0 0 -108 396 0 0 12 -16 0c-9,0 -16,1 -20,4 -4,2 -7,9 -7,21l0 524c0,11 2,18 7,21 4,2 11,4 20,4l16 0 0 12 -153 0z"/>
     <path class="fil0" d="M6627 2387l0 -12 -19 0c-7,0 -12,-1 -17,-3 -5,-2 -7,-10 -7,-23l0 -248 76 0c18,0 34,2 48,7 30,10 45,34 45,73l12 0 0 -171 -12 0c0,21 -4,38 -12,49 -14,20 -40,30 -78,30l-79 0 0 -287 178 0c31,1 55,11 71,30 17,19 25,41 25,66l12 0 0 -108 -396 0 0 12 16 0c9,0 16,1 20,4 4,2 7,9 7,21l0 524c0,11 -2,18 -7,21 -4,2 -11,4 -20,4l-16 0 0 12 153 0z"/>
     <path class="fil1" d="M7663 2154c-12,0 -23,-3 -33,-9 -10,-6 -18,-14 -23,-23 -6,-10 -9,-21 -9,-33 0,-12 3,-23 9,-33 6,-10 14,-18 23,-23 10,-6 21,-9 33,-9 12,0 23,3 33,9 10,6 18,14 24,23 6,10 9,21 9,33 0,12 -3,23 -9,33 -6,10 -14,18 -24,23 -10,6 -21,9 -33,9zm0 -4c8,0 16,-3 23,-8 7,-6 12,-13 16,-22 4,-9 6,-20 6,-31 0,-11 -2,-22 -6,-31 -4,-9 -9,-17 -16,-22 -7,-6 -14,-8 -23,-8 -8,0 -16,3 -23,8 -7,6 -12,13 -16,22 -4,9 -6,20 -6,31 0,11 2,22 6,31 4,9 9,17 16,22 7,6 14,8 23,8z"/>
     <path class="fil1" d="M6870 2154c-12,0 -23,-3 -33,-9 -10,-6 -18,-14 -23,-23 -6,-10 -9,-21 -9,-33 0,-12 3,-23 9,-33 6,-10 14,-18 23,-23 10,-6 21,-9 33,-9 12,0 23,3 33,9 10,6 18,14 24,23 6,10 9,21 9,33 0,12 -3,23 -9,33 -6,10 -14,18 -24,23 -10,6 -21,9 -33,9zm0 -4c8,0 16,-3 23,-8 7,-6 12,-13 16,-22 4,-9 6,-20 6,-31 0,-11 -2,-22 -6,-31 -4,-9 -9,-17 -16,-22 -7,-6 -14,-8 -23,-8 -8,0 -16,3 -23,8 -7,6 -12,13 -16,22 -4,9 -6,20 -6,31 0,11 2,22 6,31 4,9 9,17 16,22 7,6 14,8 23,8z"/>
    </g>
   </g>
  </g>
 </g>
</svg>
